<?xml version="1.0" encoding="utf-8"?>
<svg xmlns="http://www.w3.org/2000/svg" xmlns:xlink="http://www.w3.org/1999/xlink" version= "1.1" width="1618px" height="1000px" viewBox="-449 214 1618 1000">
<g id="layer1">
<g style="fill:rgb(0,174,199); fill-opacity:1.0; stroke-linejoin: miter">
<path d="M-449.001,212.73354C-449.33664,212.73354,-449.65848,212.86685,-449.8958,213.10417C-450.13315,213.34149,-450.26648,213.66338,-450.26648,213.999L-450.26547,1214.0C-450.26547,1214.6989,-449.69888,1215.2655,-449.0,1215.2655L1169.001,1215.2665C1169.3365,1215.2665,1169.6584,1215.133,1169.8958,1214.8958C1170.133,1214.6584,1170.2665,1214.3365,1170.2665,1214.001L1170.2655,214.0C1170.2655,213.3011,1169.6989,212.73454,1169.0,212.73454L-449.001,212.73354 Z"/>
</g>
<g style="fill:rgb(27,2,2); fill-opacity:1.0; stroke-linejoin: miter">
<path d="M880.68823,853.87915L757.0305,850.7388L633.3729,847.59827Q632.63086,876.79706,631.8893,905.99554Q755.54694,909.1374,879.2045,912.2788Q879.9462,883.07874,880.68823,853.87915"/>
</g>
<g style="fill:rgb(27,2,2); fill-opacity:1.0; stroke-linejoin: miter">
<path d="M884.9173,609.57916L866.69324,609.11707L848.4687,608.65515Q845.06604,742.6135,841.66296,876.5724Q859.8871,877.0359,878.1113,877.49896Q881.5147,743.5393,884.9173,609.57916"/>
</g>
<g style="fill:rgb(27,2,2); fill-opacity:1.0; stroke-linejoin: miter">
<path d="M867.7443,862.78143L857.25854,862.51605L846.7728,862.24994Q843.351,996.94885,839.92944,1131.6469Q850.41504,1131.9138,860.90063,1132.1813Q864.3223,997.4816,867.7443,862.78143"/>
</g>
<g style="fill:rgb(27,2,2); fill-opacity:1.0; stroke-linejoin: miter">
<path d="M689.84045,887.4914L679.35486,887.22577L668.8693,886.9599Q665.756,1009.52,662.6431,1132.0796Q673.1287,1132.3458,683.6143,1132.613Q686.7272,1010.0527,689.84045,887.4914"/>
</g>
<g style="fill:rgb(0,0,0); fill-opacity:0.99607843; stroke-linejoin: miter">
<path d="M5.056061,733.0953L3.084582,746.5556Q-3.724387,787.8677,-2.480767,820.8043Q0.9687593,855.0357,15.725046,863.15063Q34.964302,884.25085,150.55403,855.6061L175.89592,1121.835L244.97844,1109.6365Q249.72198,962.7201,246.67085,907.94135Q242.6621,837.935,228.41295,820.8419Q216.1269,803.75726,196.50554,799.8513Q175.92352,794.0816,109.56318,793.3832L106.703094,719.98444L5.056061,733.0953"/>
</g>
<g style="fill:rgb(27,2,2); fill-opacity:1.0; stroke-linejoin: miter">
<path d="M-86.77629,603.71875L-68.546455,603.7934L-50.316372,603.86816Q-50.859077,737.86865,-51.40142,871.8696Q-69.631256,871.7964,-87.8612,871.7227Q-87.31898,737.7208,-86.77629,603.71875"/>
</g>
<g style="fill:rgb(27,2,2); fill-opacity:1.0; stroke-linejoin: miter">
<path d="M-89.74135,848.0371L33.955006,848.53845L157.65112,849.0396Q157.53311,878.2477,157.41478,907.45526Q33.7185,906.9555,-89.97781,906.4552Q-89.85955,877.24603,-89.74135,848.0371"/>
</g>
<g style="fill:rgb(27,2,2); fill-opacity:1.0; stroke-linejoin: miter">
<path d="M-77.21047,862.2503L-66.72139,862.29364L-56.232544,862.3365Q-56.778008,997.07776,-57.323524,1131.8181Q-67.81249,1131.7765,-78.30138,1131.735Q-77.75587,996.9929,-77.21047,862.2503"/>
</g>
<g style="fill:rgb(27,2,2); fill-opacity:1.0; stroke-linejoin: miter">
<path d="M100.03361,887.2533L110.522446,887.29645L121.01129,887.3393Q120.514984,1009.93805,120.0182,1132.5361Q109.529366,1132.4935,99.04041,1132.4519Q99.537186,1009.8531,100.03361,887.2533"/>
</g>
<g style="fill:rgb(201,73,123); fill-opacity:0.99607843; stroke-linejoin: miter">
<path d="M287.67526,928.48175L287.67526,928.48236L287.67465,928.48114L287.67526,928.48175"/>
</g>
<g style="fill:rgb(41,56,85); fill-opacity:1.0; stroke-linejoin: miter">
<path d="M259.14612,752.368L447.1411,753.12964L635.13586,753.8911Q635.0892,765.46436,635.0423,777.0371Q447.04745,776.277,259.05252,775.51654Q259.0993,763.9423,259.14612,752.368"/>
</g>
<g style="fill:rgb(27,2,2); fill-opacity:1.0; stroke-linejoin: miter">
<path d="M284.2668,729.91736L378.89444,730.3013L473.5221,730.6852Q473.4759,742.12714,473.42944,753.5696Q378.8018,753.1873,284.1743,752.8047Q284.2205,741.361,284.2668,729.91736"/>
</g>
<g style="fill:rgb(27,2,2); fill-opacity:1.0; stroke-linejoin: miter">
<path d="M482.7632,551.1559L491.3428,552.4355L499.9216,553.71533Q486.24658,645.42883,472.57104,737.1423Q463.992,735.86395,455.41223,734.58545Q469.0878,642.8702,482.7632,551.1559"/>
</g>
<g style="fill:rgb(0,0,0); fill-opacity:0.99607843; stroke-linejoin: miter">
<path d="M314.8496,737.776L314.8496,737.777L314.8496,737.776L314.8496,737.777"/>
</g>
<g style="fill:rgb(83,150,190); fill-opacity:0.99607843; stroke-linejoin: miter">
<path d="M109.37121,429.71634L109.37121,429.71667L109.37121,429.71667L109.37121,429.71667L109.37121,429.71634L109.37121,429.71667L109.37121,429.71667Q109.37121,429.71667,109.37121,429.71634"/>
</g>
<g style="fill:rgb(0,0,0); fill-opacity:0.99607843; stroke-linejoin: miter">
<path d="M220.22449,1101.7644L224.50249,1101.8152Q243.8013,1102.029,252.45056,1102.9556Q263.62546,1104.0974,268.4962,1106.3378Q270.8433,1107.3722,272.42798,1108.7048Q273.59302,1109.2253,275.8129,1113.2349Q277.7036,1117.373,276.83597,1126.4882L171.60315,1127.4645L179.30219,1100.2485L220.22449,1101.7644"/>
</g>
<g style="fill:rgb(255,255,255); fill-opacity:1.0; stroke-linejoin: miter">
<path d="M435.1118,698.15686L409.2767,698.1483L383.44128,698.14014Q383.43155,725.2744,383.42157,752.4087Q409.2568,752.41907,435.09186,752.42944Q435.10184,725.29297,435.1118,698.15686"/>
</g>
<g style="fill:rgb(255,255,255); fill-opacity:1.0; stroke-linejoin: miter">
<path d="M422.9373,705.1428L422.9373,705.1438L371.68008,705.1244C370.08823,705.1238,368.79752,706.4138,368.79694,708.0054L368.79694,708.00635L368.78458,741.7141C368.78415,743.3063,370.0739,744.5968,371.66562,744.59753L371.66562,744.5984L422.923,744.6166C423.68753,744.6168,424.4208,744.31335,424.9612,743.77344C425.5021,743.23315,425.8057,742.50024,425.80588,741.7361L425.80588,741.7372L425.81827,708.026C425.81863,707.2616,425.51547,706.5287,424.975,705.9877C424.4346,705.4469,423.70187,705.14294,422.9373,705.1428L422.9373,705.1438 M422.9352,710.90686L420.05435,708.0239L420.04208,741.73364L422.92508,738.8529L371.66772,738.8336L374.54892,741.71655L374.56113,708.00757L371.678,710.88855L422.9352,710.90686 Z"/>
</g>
<g style="fill:rgb(255,200,166); fill-opacity:0.99607843; stroke-linejoin: miter">
<path d="M246.70181,691.36835L246.70181,691.36835L246.70181,691.3686L246.70181,691.36835"/>
</g>
<g style="fill:rgb(0,0,0); fill-opacity:1.0; stroke-linejoin: miter">
<path d="M861.5753,915.0521L853.26685,914.8579L844.9585,914.66425Q842.4633,1021.3941,839.9681,1128.1243Q848.2764,1128.3185,856.58496,1128.5134Q859.0801,1021.7828,861.5753,915.0521"/>
</g>
<g style="fill:rgb(255,177,146); fill-opacity:1.0; stroke-linejoin: miter">
<path d="M642.4642,996.99493L647.20306,933.2854L689.99133,937.7639Q650.6162,1067.2405,650.8784,1069.4353Q648.6558,1077.3999,649.3131,1081.8094Q649.548,1083.6456,650.36774,1085.4366Q653.8625,1091.3268,654.08075,1092.4176Q654.65515,1094.0001,654.5063,1095.724Q654.6772,1098.2427,649.361,1104.9672L647.78625,1106.8969L629.03705,1104.5789Q610.2869,1102.2612,599.73315,1100.2096Q592.96423,1098.8544,592.8155,1097.6975Q592.80963,1097.1187,594.23224,1096.3794Q600.9302,1093.4354,606.83936,1089.765Q610.1158,1087.6663,613.4469,1084.6404Q620.22504,1078.6261,625.18585,1067.8715Q630.06647,1057.047,633.5224,1042.8718Q638.59485,1021.34625,642.4642,996.99493"/>
</g>
<g style="fill:rgb(255,177,146); fill-opacity:1.0; stroke-linejoin: miter">
<path d="M626.06287,990.2451L626.70807,926.36255L669.696,928.09094Q638.7001,1059.826,639.10205,1061.9989Q637.39484,1070.0898,638.33307,1074.4481Q638.68604,1076.2653,639.6183,1078.0007Q643.4836,1083.6539,643.77136,1084.7286Q644.44617,1086.2712,644.4074,1088.0013Q644.74023,1090.5038,639.8654,1097.5554L638.41766,1099.5818L619.55786,1098.4705Q600.6978,1097.3588,590.0337,1095.9866Q583.19196,1095.0681,582.9689,1093.9226Q582.92615,1093.3451,584.2986,1092.5166Q590.7947,1089.1511,596.45575,1085.1085Q599.59094,1082.8038,602.7214,1079.5712Q609.1003,1073.1351,613.3619,1062.0857Q617.5391,1050.9686,620.07916,1036.6016Q623.76184,1014.796,626.06287,990.2451"/>
</g>
<g style="fill:rgb(0,0,0); fill-opacity:1.0; stroke-linejoin: miter">
<path d="M831.9599,704.9626L830.49976,716.2974C826.2483,746.93066,823.859,775.9458,822.0463,803.2675C821.16943,816.48456,823.2154,841.6795,826.29047,879.2635C827.113,889.3164,825.3988,894.9387,824.34283,896.0383C822.34247,905.4079,810.9011,896.26044,792.67834,898.7203C780.40094,900.37744,751.73645,913.3834,703.9869,907.61926L694.8505,998.11633L692.59625,1086.9688C621.05615,1043.2307,577.37573,1010.3967,559.06836,990.6822C539.1249,969.2058,525.5041,940.3338,520.6027,901.75385C572.28845,879.3774,630.66785,860.6027,691.661,834.9168C712.6449,826.08,723.0791,809.85944,729.717,797.0271C735.9773,784.9246,743.11865,760.4521,749.6569,722.8025L831.9599,704.9626 Z"/>
</g>
<g style="fill:rgb(255,177,146); fill-opacity:1.0; stroke-linejoin: miter">
<path d="M676.668,851.3933L695.0494,861.98346Q733.2966,807.47205,755.2007,770.1836Q771.93115,742.39636,780.7911,712.3004Q785.57007,691.936,781.2557,678.41595Q770.4835,650.8417,754.3079,639.0271Q748.7527,636.5249,746.47723,648.5183Q745.7124,652.69574,745.259,658.9411L743.64526,696.72015L741.71436,717.7067Q736.75397,747.7182,731.92786,759.2244Q723.3235,780.35645,712.5495,798.311Q690.9648,833.3398,676.668,851.3933"/>
</g>
<g style="fill:rgb(0,0,0); fill-opacity:1.0; stroke-linejoin: miter">
<path d="M780.68445,891.6093L772.8832,900.54913C752.68964,844.1048,742.3315,807.1117,740.6164,789.6734C739.3906,777.21045,738.77545,766.2848,739.847,756.74744C740.38293,751.9772,741.00885,747.53424,741.8374,743.43097C741.48883,743.8636,743.5979,735.5548,747.9868,718.4586C748.6472,715.8859,748.76337,713.54144,749.0226,711.51227C749.18677,710.227,749.5088,707.386,747.5476,703.72736C742.54004,694.3855,739.38574,689.3512,739.1608,687.6122C738.4477,682.09875,738.13403,678.49384,738.4201,676.5793C738.8588,673.6439,739.1986,670.43427,739.9863,667.0155C741.5908,660.0519,743.89307,652.8439,747.3576,645.60895C751.586,636.77893,754.7821,632.0124,755.78815,630.5244C762.30774,620.8815,770.2393,614.273,780.4795,611.80585C791.0103,609.2687,802.5946,612.61957,815.557,620.4813C824.6947,626.0234,832.36395,635.23047,837.7222,649.023C841.32654,658.3006,842.70654,670.5599,842.25653,685.651L841.341,697.69867C840.3932,706.181,838.55194,715.40436,836.68756,725.54175C831.52313,753.623,824.8026,796.80023,790.0338,893.4113 Z"/>
</g>
<g style="fill:rgb(255,177,146); fill-opacity:1.0; stroke-linejoin: miter">
<path d="M791.22003,480.3152L790.1686,481.94467Q784.31696,490.85248,781.59393,497.29166Q780.2136,499.8822,776.01385,514.95465Q774.7267,518.8494,772.61365,522.1194Q772.2454,523.073,768.7303,526.4551Q767.6202,527.7325,758.7629,533.34283Q756.49713,535.16504,756.6812,535.4564Q756.2359,535.80206,757.0757,537.37805Q762.841,542.0419,762.72174,543.3663Q763.03204,543.7192,762.2318,545.8015Q761.8746,546.69775,758.7548,550.8225Q757.6797,552.7184,757.8636,552.986Q757.7365,554.98975,763.146,557.6597Q763.3769,557.77423,762.5786,558.27057Q758.8708,559.71783,758.6045,560.15515Q757.5412,561.2201,757.64575,561.5749Q757.4619,561.7894,757.77356,563.513Q760.0466,570.17316,759.8263,570.56104Q760.094,571.0682,759.7927,577.6812Q759.79407,578.6612,759.92487,579.57214Q761.48676,589.34546,789.05255,586.8974Q786.9791,602.6316,783.93604,611.28204Q781.5706,617.3089,780.80835,618.2857Q778.74695,621.8676,774.37885,627.7265Q773.2944,629.28516,772.74927,630.5383Q772.204,631.7902,772.468,632.7061L773.00165,633.52936Q775.2841,636.3372,797.57996,633.56305Q819.1998,630.31244,819.09045,627.5255Q819.362,626.7197,818.93634,625.6709Q815.3635,619.1475,814.7574,615.19507L814.3909,612.3581Q814.1812,609.30475,814.52875,605.56213Q815.2976,597.9527,817.3949,589.09625Q818.1095,585.56165,824.4847,561.49677Q825.93713,555.44855,826.63635,551.2458Q829.9316,523.2799,832.0595,508.231L791.22003,480.3152"/>
</g>
<g style="fill:rgb(0,0,0); fill-opacity:1.0; stroke-linejoin: miter">
<path d="M772.76776,494.14658L807.3468,510.64844Q803.54535,544.66016,803.21625,557.3245Q802.8569,578.1528,803.6949,580.9798Q805.7403,602.7208,817.89886,608.02136Q823.15125,610.36285,829.7036,610.1785Q833.0002,610.0862,836.322,609.4197Q838.086,609.37537,845.94666,606.36316Q856.27185,601.0899,858.54004,597.6981Q860.133,596.1768,861.9325,592.5041L862.951,589.2436L863.34045,585.8497Q863.41534,582.39,862.63385,578.6352L856.8908,557.75903Q855.72626,553.1377,855.1114,548.11884Q854.5602,543.0801,854.5826,537.73553L855.2029,516.1974Q855.3138,510.8783,854.93835,505.89212Q854.56305,500.90643,853.3483,496.46442L851.8354,492.21268Q848.1548,482.68774,833.9724,476.3358Q819.96796,470.93185,806.47296,471.33264Q792.9641,471.6969,785.8096,476.844Q780.15283,479.59195,772.76776,494.14658"/>
</g>
<g style="fill:rgb(255,169,106); fill-opacity:0.99607843; stroke-linejoin: miter">
<path d="M824.08026,602.65216L824.08014,602.65265L824.08,602.6539L824.08026,602.65216"/>
</g>
<g style="fill:rgb(255,177,146); fill-opacity:1.0; stroke-linejoin: miter">
<path d="M687.94745,840.7311L702.9613,855.71655Q763.35016,804.6618,784.82385,782.61395Q812.6858,754.5848,824.5235,733.32654Q835.6463,712.5892,833.41003,697.23926Q828.4895,667.83777,819.0776,656.89166Q813.8513,650.46674,807.8869,662.83685Q805.83923,667.1535,803.4952,674.1011L792.67554,708.6633Q786.26245,726.90063,784.2775,730.9263Q772.00653,757.89185,763.1747,768.5813Q738.93506,800.8018,687.94745,840.7311"/>
</g>
<g style="fill:rgb(255,177,146); fill-opacity:1.0; stroke-linejoin: miter">
<path d="M682.1471,832.05304L682.05994,834.67804Q681.0986,852.26514,684.7591,858.7314Q685.5944,860.139,686.71155,861.175L687.8855,862.13696Q689.12366,863.01263,690.5662,863.6199Q694.12146,865.2036,702.0959,865.97534L721.98834,821.51385L682.1471,832.05304"/>
</g>
<g style="fill:rgb(0,0,0); fill-opacity:0.99607843; stroke-linejoin: miter">
<path d="M777.55145,516.5462L777.55133,516.5474Q781.5125,516.02704,783.3844,515.91016Q784.1411,515.8593,784.821,515.84827L785.4767,515.8502L786.08453,515.87665Q786.7011,515.9227,787.07086,516.0017L787.5461,516.12146L787.9564,516.2753L788.30756,516.46014Q788.6295,516.6601,788.8563,516.90924Q789.44775,517.5203,789.7845,518.9986L777.55145,516.5462"/>
</g>
<g style="fill:rgb(255,255,255); fill-opacity:0.99607843; stroke-linejoin: miter">
<path d="M778.0856,520.5166L778.0853,520.51685L776.7466,526.0625Q781.48065,526.14154,786.2144,526.2212L778.0856,520.5166"/>
</g>
<g style="fill:rgb(0,0,0); fill-opacity:0.99607843; stroke-linejoin: miter">
<path d="M778.30005,520.46094L778.30005,520.4621Q777.6538,521.2648,777.13403,522.0462Q776.7445,522.69073,776.7096,522.8119Q776.5957,523.0625,776.5284,523.3056Q776.398,523.7907,776.4729,524.2412Q776.5083,524.46655,776.5812,524.68665Q776.60095,524.7985,776.8604,525.334Q777.088,525.75934,777.3532,526.1774L780.4003,524.52954L778.30005,520.46094"/>
</g>
<g style="fill:rgb(255,0,0); fill-opacity:0.99607843; stroke-linejoin: miter">
<path d="M758.5449,551.19885Q757.6989,552.74646,757.8636,552.986Q757.7365,554.98975,763.146,557.6597Q763.3769,557.77423,762.5786,558.27057Q758.8708,559.71783,758.6045,560.15515Q757.5412,561.2201,757.64575,561.5749Q757.4619,561.7894,757.77356,563.513Q758.08356,564.4211,758.347,565.21313Q763.16174,561.67017,767.9761,558.1283Q763.2638,554.66406,758.5511,551.1996 Z"/>
</g>
<g style="fill:rgb(0,0,0); fill-opacity:0.99607843; stroke-linejoin: miter">
<path d="M618.0682,1076.9774L617.8504,1077.3488Q609.4464,1087.4731,592.2631,1095.5262Q585.9803,1098.3341,577.9238,1100.2104Q574.13306,1101.0461,570.10986,1101.6548L551.3198,1104.3522Q548.1065,1104.9298,545.7739,1105.7101Q543.4408,1106.4899,542.3073,1107.5946L541.553,1108.8113Q541.1006,1109.7407,542.2675,1111.7826Q544.9381,1115.7354,552.803,1120.3239Q563.05,1125.6991,565.78375,1126.3584Q570.52185,1128.0989,575.366,1129.1704L580.1377,1130.0063Q584.8771,1130.6292,589.1624,1130.2161Q597.70245,1129.2307,604.43475,1125.5493Q607.8072,1123.7765,610.7655,1121.7374L623.194,1112.2587Q624.3966,1111.213,628.60693,1108.9158Q634.16626,1106.2451,639.52167,1107.5435L641.7144,1129.9213L650.9404,1129.3668L650.2631,1114.5037Q654.79504,1108.6713,655.15173,1101.8928Q655.62524,1095.2444,654.36926,1082.0026L618.0682,1076.9774"/>
</g>
<g style="fill:rgb(254,186,155); fill-opacity:0.99607843; stroke-linejoin: miter">
<path d="M572.0373,1081.2273L572.0382,1081.2277L572.0373,1081.2273L572.0382,1081.2277"/>
</g>
<g style="fill:rgb(254,186,155); fill-opacity:0.99607843; stroke-linejoin: miter">
<path d="M596.10876,1091.4849L596.1101,1091.4854L596.10876,1091.4849L596.1101,1091.4854"/>
</g>
<g style="fill:rgb(0,0,0); fill-opacity:0.99607843; stroke-linejoin: miter">
<path d="M607.4816,1072.2052L607.2642,1072.5764Q598.85974,1082.7002,581.67664,1090.7533Q575.39355,1093.5614,567.33716,1095.4384Q563.54663,1096.2733,559.52295,1096.8818L540.7334,1099.5792Q537.51965,1100.1562,535.1869,1100.9373Q532.854,1101.7168,531.7204,1102.8218L530.9662,1104.0377Q530.51355,1104.9678,531.6806,1107.01Q534.3512,1110.9618,542.21643,1115.5509Q552.464,1120.9269,555.1974,1121.586Q559.9356,1123.3269,564.7798,1124.3984L569.5516,1125.2338Q574.2912,1125.8569,578.5764,1125.4436Q587.11633,1124.4592,593.849,1120.7773Q597.2217,1119.0045,600.18024,1116.9652L612.6085,1107.4867Q613.8114,1106.4413,618.02155,1104.1448Q623.5806,1101.4733,628.9361,1102.7715L631.1293,1125.1504L640.35547,1124.5952L639.678,1109.7316Q644.2098,1103.8994,644.566,1097.1215Q645.04047,1090.4733,643.7836,1077.2302L607.4816,1072.2052"/>
</g>
<g style="fill:rgb(41,56,85); fill-opacity:0.99607843; stroke-linejoin: miter">
<path d="M595.0702,757.60626L606.4162,757.60675L617.7622,757.6072Q617.76196,945.77893,617.7619,1133.9508Q606.4159,1133.9513,595.06995,1133.9518Q595.07,945.779,595.0702,757.60626"/>
</g>
<g style="fill:rgb(41,56,85); fill-opacity:0.99607843; stroke-linejoin: miter">
<path d="M274.32724,758.3762L297.01923,758.377L297.01907,1134.7206L274.3271,1134.7216L274.32724,758.3762"/>
</g>
<g style="fill:rgb(254,186,155); fill-opacity:1.0; stroke-linejoin: miter">
<path d="M245.41093,714.04254L293.8744,707.0181L312.40494,721.87506L244.44125,732.018L213.56738,718.51337L245.41093,714.04254 Z"/>
</g>
<g style="fill:rgb(210,232,195); fill-opacity:1.0; stroke-linejoin: miter">
<path d="M75.80501,616.5101L115.197784,629.4415L241.12492,751.80096L272.70517,714.21063C210.1928,639.2625,169.90585,593.17957,151.9889,575.81213C136.71422,561.00586,128.08806,553.50854,126.571625,552.4068C116.81009,545.31604,109.22611,540.66693,103.233955,538.9022C95.31394,536.5685,87.32887,537.86475,79.115654,543.3195L75.80501,616.5101 Z"/>
</g>
<g style="fill:rgb(254,186,155); fill-opacity:0.99607843; stroke-linejoin: miter">
<path d="M312.2689,721.67114L301.20947,731.4604L290.14957,741.2497Q269.01962,741.83014,247.8894,742.41095Q254.09888,735.60596,260.30875,728.8L312.2689,721.67114"/>
</g>
<g style="fill:rgb(0,0,0); fill-opacity:0.99607843; stroke-linejoin: miter">
<path d="M171.63626,605.13434L171.63626,605.13434L171.63626,605.1352L171.63626,605.13434"/>
</g>
<g style="fill:rgb(125,139,150); fill-opacity:0.99607843; stroke-linejoin: miter">
<path d="M37.138466,657.88324L37.138226,657.8845L37.137806,657.8845L37.138466,657.88324 Z"/>
</g>
<g style="fill:rgb(0,0,0); fill-opacity:1.0; stroke-linejoin: miter">
<path d="M70.56745,511.33386L70.543,511.10764Q70.22355,486.13376,69.56065,482.15414Q69.12502,477.65787,68.29947,474.09744Q64.78794,461.34927,64.239235,456.83423Q62.990726,447.4099,63.11323,441.8005Q63.37741,429.61392,64.82704,424.59976Q65.581024,421.27515,66.75268,418.27808L68.04465,415.4046Q69.46088,412.64948,71.31946,410.3804Q75.07445,405.85098,80.13451,403.15784Q83.76085,400.6664,93.79841,399.069Q100.65699,398.348,108.6163,399.88647Q117.604454,401.6101,131.83018,406.9589Q136.92365,407.8371,139.3683,407.8458Q145.56047,409.1148,150.10716,399.64844Q154.48311,408.58246,154.61458,413.125Q155.67267,420.3528,148.26013,437.1797L117.424774,480.61652L70.56745,511.33386 Z"/>
</g>
<g style="fill:rgb(255,186,155); fill-opacity:0.99607843; stroke-linejoin: miter">
<path d="M65.864845,521.25916L65.865715,521.26135L70.01263,503.29123L70.23905,496.35645Q77.87564,496.63995,82.385445,493.62888Q86.48868,490.63275,88.97547,484.46216Q90.84215,479.11166,90.86639,476.62115Q91.000015,475.01456,90.97118,473.4206Q90.39823,463.24805,90.72925,462.72314Q90.77578,460.1309,92.72913,456.70154Q98.42438,449.65146,103.03897,452.20877Q104.34537,452.6826,106.126,455.66217Q106.88913,456.56046,110.20173,465.82993Q111.13889,468.03613,111.7874,467.45877Q112.70315,466.07706,113.04094,464.3093Q115.78559,451.5244,117.0658,446.9906Q119.58403,438.72525,120.41028,437.4601Q123.59184,429.34494,132.6848,424.87927Q146.7806,420.06766,153.123,426.3063Q157.70163,442.68738,157.56143,447.78717Q157.85556,453.43893,153.58528,458.55878Q163.74641,476.50452,163.36977,480.40253Q163.96695,485.2045,154.24994,484.6573Q155.35458,491.80438,154.62375,493.63632Q154.12265,495.77832,150.55391,496.58405Q153.0486,497.20633,152.22429,500.26886Q151.37556,502.94498,147.87477,509.04565Q147.9931,516.48834,146.61182,519.7617Q144.98294,522.78986,143.37439,523.17426Q140.91553,524.7054,131.10681,524.1927L120.32315,519.6185L112.94554,527.24176L65.864845,521.25916 Z"/>
</g>
<g style="fill:rgb(0,0,0); fill-opacity:0.99607843; stroke-linejoin: miter">
<path d="M151.19283,522.83234L151.19371,522.8315L151.19304,522.83234L151.19371,522.8315 Z"/>
</g>
<g style="fill:rgb(210,232,195); fill-opacity:1.0; stroke-linejoin: miter">
<path d="M69.34487,788.9132L69.34487,788.91455L66.41591,793.3496C50.798836,817.35864,38.842632,830.19495,30.94883,833.06055C21.78727,836.3873,10.810605,836.173,-2.4404356,831.23474C-2.9380448,827.7821,-3.3998609,824.3174,-3.8863387,820.8478C-6.5550213,801.8274,-6.9039373,785.14136,-5.301687,770.73303C-5.0016685,768.03284,-4.4236813,761.794,-2.174894,752.26483C5.948611,717.8438,10.264104,700.1539,10.456267,699.01056C11.00365,695.75104,12.372064,689.2819,13.802041,679.4561C15.639475,666.8284,16.44956,642.63934,17.688253,606.9451C18.09067,595.3433,19.39686,588.67145,19.673294,586.7381C20.547787,580.6225,22.57123,573.21,25.763514,564.3555C26.524689,562.2453,29.04184,556.9842,34.324375,549.02203C39.554073,541.1392,48.58875,531.98285,61.030125,521.28503L68.966934,504.2637L120.09497,523.2525L117.56515,538.57367C134.10585,570.2941,142.50316,593.9372,144.22897,609.36127C146.12427,626.29645,147.22102,643.617,146.05328,661.50775C146.51138,661.95,136.18279,685.77386,130.87708,742.1108C129.21086,759.80145,136.259,776.75037,136.1389,783.8301C135.87405,799.4325,136.96754,810.6793,139.4921,817.57166C126.52602,821.69995,116.25353,821.5231,108.1597,818.2156C100.645836,815.1455,87.55637,805.7783,69.34487,788.9132L69.34487,788.91455 Z"/>
</g>
<g style="fill:rgb(0,0,0); fill-opacity:0.99607843; stroke-linejoin: miter">
<path d="M137.63983,452.59045L138.20033,452.40353Q141.878,451.09955,144.12177,451.17944Q144.61871,451.20346,145.0967,451.2895Q145.34497,451.30215,146.49437,451.6646Q147.6348,452.055,149.57855,453.1162Q146.23735,452.6044,144.21675,452.53275Q142.2577,452.42932,137.63983,452.59045 Z"/>
</g>
<g style="fill:rgb(0,0,0); fill-opacity:0.99607843; stroke-linejoin: miter">
<path d="M138.32434,462.20306L138.32281,462.20438L138.32281,462.20526L138.32434,462.20306 Z"/>
</g>
<g style="fill:rgb(255,255,255); fill-opacity:0.99607843; stroke-linejoin: miter">
<path d="M139.35693,456.90634L139.3565,456.90765L146.03036,454.9844Q146.58693,456.2299,146.54414,456.98535Q146.55988,457.71594,145.94827,459.44266L139.35693,456.90634 Z"/>
</g>
<g style="fill:rgb(0,0,0); fill-opacity:0.99607843; stroke-linejoin: miter">
<path d="M145.99565,454.93768L144.11127,456.95566L145.81158,459.32388Q146.3212,458.44568,146.50679,457.9701Q146.67844,457.49454,146.68257,457.40414Q146.72209,457.21722,146.73085,457.0334Q146.7374,456.8513,146.71315,456.67224Q146.71663,456.58096,146.58301,456.14252Q146.43651,455.70453,145.99565,454.93768 Z"/>
</g>
<g style="fill:rgb(0,0,0); fill-opacity:0.99607843; stroke-linejoin: miter">
<path d="M168.08722,635.16016L168.08722,635.161L168.08722,635.1614L168.08722,635.16016"/>
</g>
<g style="fill:rgb(254,186,155); fill-opacity:1.0; stroke-linejoin: miter">
<path d="M242.45667,728.02106L290.92017,720.9967L309.45087,735.85406L241.48723,745.9957L210.61288,732.49194L242.45667,728.02106 Z"/>
</g>
<g style="fill:rgb(210,232,195); fill-opacity:1.0; stroke-linejoin: miter">
<path d="M72.850945,630.488L112.243744,643.42004L238.17093,765.779L269.75113,728.1888C207.23872,653.2409,166.95157,607.1573,149.0346,589.79016C133.7602,574.98425,125.13405,567.48706,123.61782,566.38525C113.85603,559.29376,106.272095,554.64514,100.2799,552.87994C92.35967,550.5464,84.37482,551.84326,76.16115,557.2977L72.850945,630.488 Z"/>
</g>
<g style="fill:rgb(254,186,155); fill-opacity:0.99607843; stroke-linejoin: miter">
<path d="M309.31464,735.6497L298.25516,745.43884L287.19556,755.2283Q266.0654,755.80835,244.93518,756.38916Q251.14442,749.58453,257.35446,742.77856L309.31464,735.6497"/>
</g>
<g style="fill:rgb(210,232,195); fill-opacity:1.0; stroke-linejoin: miter">
<path d="M117.346725,537.0782L117.34671,537.0782L113.842026,547.6364Q119.67035,551.10175,125.49864,554.5672L117.346725,537.0782"/>
</g>
<g style="fill:rgb(210,232,195); fill-opacity:1.0; stroke-linejoin: miter">
<path d="M120.97692,550.38104L120.97693,550.38104L122.62457,556.04425L128.90765,560.5611Q126.53596,556.1468,124.164276,551.7325L120.97692,550.38104"/>
</g>
<g style="fill:rgb(0,0,0); fill-opacity:0.99607843; stroke-linejoin: miter">
<path d="M299.23346,840.93304L299.23343,840.9333L299.2334,840.93353L299.23346,840.93304"/>
</g>
<g style="fill:rgb(255,255,255); fill-opacity:0.99607843; stroke-linejoin: miter">
<path d="M515.1359,744.44104L572.9003,744.4412L630.66455,744.44135Q630.66455,745.1167,630.66455,745.792Q572.9003,745.7923,515.1359,745.7925Q515.1359,745.11676,515.1359,744.44104"/>
</g>
<g style="fill:rgb(217,226,231); fill-opacity:1.0; stroke-linejoin: miter">
<path d="M515.50165,745.57294L573.266,745.5731L631.0303,745.5733L631.0303,746.9239L515.50165,746.9244L515.50165,745.57294"/>
</g>
<g style="fill:rgb(255,255,255); fill-opacity:0.99607843; stroke-linejoin: miter">
<path d="M515.27545,746.81793L573.03973,746.8182L630.8041,746.8183L630.8041,748.16895L515.27545,748.1694L515.27545,746.81793"/>
</g>
<g style="fill:rgb(217,226,231); fill-opacity:1.0; stroke-linejoin: miter">
<path d="M515.27545,747.6102L573.03973,747.6105L630.8041,747.6106L630.8041,748.9612L515.27545,748.9617L515.27545,747.6102"/>
</g>
<g style="fill:rgb(255,255,255); fill-opacity:0.99607843; stroke-linejoin: miter">
<path d="M515.27545,748.8553L573.03973,748.8555L630.8041,748.85565L630.8041,750.2063L515.27545,750.2068L515.27545,748.8553"/>
</g>
<g style="fill:rgb(217,226,231); fill-opacity:1.0; stroke-linejoin: miter">
<path d="M515.64087,750.10046L573.40515,750.10065L631.1695,750.10077L631.1695,751.4514L515.64087,751.4519L515.64087,750.10046"/>
</g>
<g style="fill:rgb(255,255,255); fill-opacity:0.99607843; stroke-linejoin: miter">
<path d="M515.5278,751.11914L573.29205,751.1193L631.0564,751.11945L631.0564,752.47003L515.5278,752.4706L515.5278,751.11914"/>
</g>
<g style="fill:rgb(217,226,231); fill-opacity:1.0; stroke-linejoin: miter">
<path d="M515.2116,752.161L572.9759,752.1612L630.74023,752.1614L630.74023,753.51196L515.2116,753.51245L515.2116,752.161"/>
</g>
<g style="fill:rgb(0,0,0); fill-opacity:0.28235295; stroke-linejoin: miter">
<path d="M985.9151,1129.9176L980.6049,1132.4078Q942.85175,1139.9335,759.6738,1144.4456Q575.22845,1148.9539,325.27957,1148.1018Q86.73596,1146.9108,-56.28402,1141.1318Q-102.1092,1139.2638,-131.77592,1137.0609L-156.70999,1134.7963Q-177.25793,1132.4587,-177.48895,1129.9176Q-171.25119,1122.1193,-7.112381,1116.941Q157.02643,1111.7627,404.21307,1111.5659Q651.3997,1111.7627,815.5386,1116.941Q979.6774,1122.1193,985.9151,1129.9176"/>
</g>
</g>
</svg>