<?xml version="1.0" encoding="UTF-8"?>
<svg version="1.1" viewBox="0 0 636.88 442.31" xmlns="http://www.w3.org/2000/svg">
 <g transform="matrix(-1 .0015708 -.0015708 -1 639.06 466.45)">
  <rect transform="matrix(.91338 0 0 -.98871 .16377 441.88)" x="46.438" y="14.106" width="610.86" height="275.81" rx="8.0878" ry="8.0878" fill="none" stroke="#000" stroke-linecap="round" stroke-width="4.115"/>
  <path d="m152.38 332.66c-11.183 0-20.18-9.7386-20.18-21.844v-76.038c0-12.106 8.9966-21.844 20.18-21.844h342.38c11.183 0 20.18 9.7386 20.18 21.844v76.038c0 12.106-8.9965 21.844-20.18 21.844h-342.38zm104.92-22.71h134.07c4.0272 0 7.25-3.5195 7.25-7.8788v-70.816c0-4.3593-3.2228-7.8479-7.25-7.8479h-134.07c-4.0271 0-7.2785 3.4886-7.2785 7.8479v70.816c0 4.3593 3.2514 7.8788 7.2785 7.8788z" stroke="#fff" stroke-width="2.6"/>
  <rect transform="matrix(.91338 0 0 -.98871 .16377 441.88)" x="4.0816" y="-23.075" width="692.68" height="442.8" rx="27.333" ry="27.333" fill="none" stroke="#000" stroke-linecap="round" stroke-width="3.784"/>
  <g stroke="#fff">
   <path d="m231.21 267.85c0-24.186-18.113-43.793-40.456-43.793s-40.456 19.607-40.456 43.793 18.113 43.793 40.456 43.793 40.456-19.607 40.456-43.793z" fill="none" stroke-linecap="round" stroke-width="12.671"/>
   <g fill="#fff">
    <rect transform="matrix(.91338 0 0 -.98871 .16377 441.88)" x="166.99" y="173.49" width="12.738" height="7.8723"/>
    <rect transform="matrix(.91338 0 0 -.98871 .16377 441.88)" x="236.41" y="173.49" width="12.738" height="7.8723"/>
    <rect transform="matrix(.60465 -.74105 -.68459 -.65452 .16377 441.88)" x="229.65" y="-42.434" width="12.738" height="7.8723"/>
    <rect transform="matrix(.60465 -.74105 -.68459 -.65452 .16377 441.88)" x="299.06" y="-42.434" width="12.738" height="7.8723"/>
    <rect transform="matrix(.54911 .79009 .72989 -.5944 .16377 441.88)" x="-57.769" y="269" width="12.738" height="7.8723"/>
    <rect transform="matrix(.54911 .79009 .72989 -.5944 .16377 441.88)" x="11.646" y="269" width="12.738" height="7.8723"/>
   </g>
   <path d="m500.09 267.85c0-24.186-18.113-43.793-40.456-43.793s-40.456 19.607-40.456 43.793 18.113 43.793 40.456 43.793 40.456-19.607 40.456-43.793z" fill="none" stroke-linecap="round" stroke-width="12.671"/>
   <g fill="#fff">
    <rect transform="matrix(.91338 0 0 -.98871 269.05 441.88)" x="166.99" y="173.49" width="12.738" height="7.8723"/>
    <rect transform="matrix(.91338 0 0 -.98871 269.05 441.88)" x="236.41" y="173.49" width="12.738" height="7.8723"/>
    <rect transform="matrix(.60465 -.74105 -.68459 -.65452 269.05 441.88)" x="229.65" y="-42.434" width="12.738" height="7.8723"/>
    <rect transform="matrix(.60465 -.74105 -.68459 -.65452 269.05 441.88)" x="299.06" y="-42.434" width="12.738" height="7.8723"/>
    <rect transform="matrix(.54911 .79009 .72989 -.5944 269.05 441.88)" x="-57.769" y="269" width="12.738" height="7.8723"/>
    <rect transform="matrix(.54911 .79009 .72989 -.5944 269.05 441.88)" x="11.646" y="269" width="12.738" height="7.8723"/>
   </g>
  </g>
  <g fill="none" stroke="#000">
   <rect transform="matrix(.91338 0 0 -.98871 .16377 441.88)" x="66.763" y="22.055" width="573.74" height="68.955" stroke-linecap="round" stroke-width="4.115"/>
   <path d="m147.54 401.72h423.11"/>
   <path d="m147.54 379.96h423.11"/>
   <g stroke-linecap="round">
    <path d="m94.634 70.238c0-13.758-10.303-24.911-23.013-24.911s-23.013 11.153-23.013 24.911 10.303 24.911 23.013 24.911 23.013-11.153 23.013-24.911z" stroke-width="4.115"/>
    <path d="m74.698 69.518c0-1.4425-1.0802-2.6118-2.4128-2.6118s-2.4128 1.1694-2.4128 2.6118c0 1.4425 1.0803 2.6118 2.4128 2.6118 1.3326 0 2.4128-1.1694 2.4128-2.6118z" stroke-width="23.768"/>
    <path d="m596.88 70.238c0-13.758-10.303-24.911-23.013-24.911s-23.013 11.153-23.013 24.911 10.303 24.911 23.013 24.911 23.013-11.153 23.013-24.911z" stroke-width="4.115"/>
    <path d="m576.94 69.518c0-1.4425-1.0803-2.6118-2.4128-2.6118-1.3326 0-2.4128 1.1694-2.4128 2.6118 0 1.4425 1.0803 2.6118 2.4128 2.6118s2.4128-1.1694 2.4128-2.6118z" stroke-width="23.768"/>
   </g>
   <path d="m105.55 26.742s14.175 88.493 24.225 103.14c6.1653 8.9854 377.23 4.8625 383.55 0.87402 9.6892-6.1182 26.646-104.01 26.646-104.01h-434.42z" stroke-width="3.4"/>
   <g stroke-linecap="round">
    <g stroke-width="3.4">
     <path d="m187.11 50.779c0-8.4478-6.3265-15.296-14.131-15.296-7.8041 0-14.131 6.8483-14.131 15.296 0 8.4478 6.3265 15.296 14.131 15.296 7.8042 0 14.131-6.8483 14.131-15.296z"/>
     <path d="m494.75 50.779c0-8.4478-6.3265-15.296-14.131-15.296-7.8041 0-14.131 6.8483-14.131 15.296 0 8.4478 6.3265 15.296 14.131 15.296 7.8042 0 14.131-6.8483 14.131-15.296z"/>
     <path d="m426.12 63.016c0-8.4478-6.3265-15.296-14.131-15.296-7.8041 0-14.131 6.8483-14.131 15.296 0 8.4478 6.3265 15.296 14.131 15.296 7.8042 0 14.131-6.8483 14.131-15.296z"/>
     <path d="m249.28 63.89c0-8.4478-6.3265-15.296-14.131-15.296-7.8041 0-14.131 6.8483-14.131 15.296 0 8.4478 6.3265 15.296 14.131 15.296 7.8042 0 14.131-6.8483 14.131-15.296z"/>
    </g>
    <g stroke-width="6.308">
     <path d="m401.06 217c-26.098 0-47.271 22.898-47.271 51.148s21.173 51.148 47.271 51.148c0.0943 0 0.18588 6.1e-4 0.28006 0v-102.3c-0.0942-5.8e-4 -0.18576 0-0.28006 0z"/>
     <path d="m243.44 217c26.098 0 47.271 22.898 47.271 51.148s-21.173 51.148-47.271 51.148c-0.0943 0-0.1859 6.1e-4 -0.28004 0v-102.3c0.0941-5.8e-4 0.18574 0 0.28004 0z"/>
    </g>
   </g>
  </g>
  <path d="m36.552 443.67c0-6.0557-4.535-10.965-10.129-10.965-5.5942 0-10.129 4.909-10.129 10.965 0 6.0556 4.535 10.965 10.129 10.965 5.5943 0 10.129-4.9091 10.129-10.965z" fill="none" stroke="#000" stroke-linecap="round" stroke-width="4.376"/>
  <path d="m20.25 441.52 4.6477-0.1094v-4.9217l2.9301 0.1094-0.2021 4.9217 4.5467 0.2187-0.101 2.6249-4.5467-0.1094-0.2021 5.9061-2.526-0.2188 0.2021-5.7967h-4.7488v-2.6249z"/>
  <path d="m621.16 443.67c0-6.0557-4.535-10.965-10.129-10.965-5.5943 0-10.129 4.909-10.129 10.965 0 6.0556 4.535 10.965 10.129 10.965 5.5942 0 10.129-4.9091 10.129-10.965z" fill="none" stroke="#000" stroke-linecap="round" stroke-width="4.376"/>
  <path d="m605.2 441.56 4.6477-0.1094v-4.9217l2.9301 0.1094-0.2021 4.9217 4.5468 0.2187-0.1011 2.6249-4.5467-0.1094-0.2021 5.9061-2.5259-0.2188 0.2021-5.7967h-4.75v-2.6249z"/>
  <path d="m34.926 48.326c0-6.0556-4.535-10.965-10.129-10.965-5.5942 0-10.129 4.9091-10.129 10.965 0 6.0556 4.535 10.965 10.129 10.965 5.5943 0 10.129-4.9091 10.129-10.965z" fill="none" stroke="#000" stroke-linecap="round" stroke-width="4.376"/>
  <path d="m18.965 46.211 4.6477-0.1094v-4.9217l2.9301 0.1094-0.2021 4.9217 4.5467 0.2187-0.1011 2.6249-4.5467-0.1094-0.2021 5.9061-2.526-0.2187 0.2021-5.7967h-4.749v-2.624z"/>
  <path d="m624.99 46.576c0-6.0556-4.535-10.965-10.129-10.965-5.5943 0-10.129 4.9091-10.129 10.965 0 6.0556 4.535 10.965 10.129 10.965 5.5942 0 10.129-4.9091 10.129-10.965z" fill="none" stroke="#000" stroke-linecap="round" stroke-width="4.376"/>
  <path d="m609.03 44.461 4.6478-0.1094v-4.9217l2.9301 0.1094-0.2021 4.9217 4.5468 0.2187-0.1011 2.6249-4.5467-0.1094-0.2021 5.9061-2.5259-0.2187 0.2021-5.7967h-4.7488v-2.624z"/>
 </g>
</svg>
