<?xml version="1.0" encoding="UTF-8"?>
<svg enable-background="new 0 0 78.488 122.973" viewBox="0 0 78.488 122.973" xmlns="http://www.w3.org/2000/svg">
 <path d="m68.64,12.466c.489.07.471.649.96.72-.241.604-1.061-.191-.96-.72z" fill-rule="evenodd"/>
 <path d="m39.84,23.986c.076-1.044 1.401-.839 2.399-.96-.792.326-1.54.698-2.399.96z" fill-rule="evenodd"/>
 <path d="m40.08,26.866c.041.742-.844,1.079-1.199.72 .165-.474.64-.64 1.199-.72z" fill-rule="evenodd"/>
 <path d="m42,30.226c-1.056.525-2.51,1.452-3.599,1.2 .95-.65 2.153-1.046 3.599-1.2z" fill-rule="evenodd"/>
 <path d="m74.16,60.226c.243.676 1.02-.066 1.44,0-.526,1.749-.553,2.235-.239,4.08 .173,1.025-.182,2.435 0,3.36 .315,1.62 1.678,2.809 1.68,3.84 .004,2.048-1.9,3.008-3.84,4.08 .575,3.772-1.536,5.041-.721,8.4-1.396,1.403-2.969,2.632-4.08,4.319 1.005,2.922.629,7.765-2.88,7.681 .19-1.047 1.306-.756 1.921-1.681 .992-1.491.955-3.975.239-5.76 .45-1.55 1.815-2.185 2.64-3.359-3.105.226-5.186-.574-6.479-2.16-2.025.219-4.038-.976-5.761-.721-1.324.197-1.69,1.608-2.879,1.2 .977-1.503 2.484-2.475 4.56-2.88 .044.523-.196.764-.72.72 2.521,1.344 6.057-.996 8.88-1.199 .896-.064 2.392-.412 2.88.72-3.062-.183-4.888.872-7.68.96 2.229,1.58 5.776-.706 8.16.24 .383-.337.613-.827.719-1.44-.209-.709-.189.726-.959.24 .616-1.543 1.984-2.335 1.68-4.8-.891-.403-1.125,1.909-1.439,2.88-1.819-.81.399-2.872.719-3.84 7.701-1.606 1.662-7.449 0-13.92-.547-2.131-.85-5.689.48-7.44 .266-.349.941-.492 1.44-.96 .839-.789.63-1.709 2.159-1.68-1.485-5.793.13-13.876-1.92-19.44 4.275,4.176.447,15.181 3.601,20.64 .034.675-.588.692-1.2.72 .445,1.387-.276,2.659-.96,3.6 .088,1.192 2.181.38 2.88.96 .134,1.174-1.507.573-2.4.72-.953.327-.285,2.275-1.921,1.92zm-2.16-2.641c2.829-.051 3.724-2.037 4.32-4.32-2.444.91-4.076,1.18-4.32,4.32zm.24,1.201c1.376-.03 3.801-1.145 2.881-1.92-.462,1.138-2.309.891-2.881,1.92zm2.64,7.439c.029-1.945-.849-3.168-.48-4.799-.344-.376-1.25-.189-1.199-.96 .283.034.543.427.72,0-.712-.249-.543-1.377-1.44-1.44-.062,2.323 1.275,5.267 2.399,7.199zm-.48-6.719c-.017-.153-.783-.808-.72-.24 .062.548.764.634.72.24zm-10.32,23.76c1.846.872 7.736,2.764 7.92-.961-2.448.242-5.007.622-7.92.961z" fill-rule="evenodd"/>
 <path d="m26.4,34.306c-.058.422-.413.547-.96.48 .158-.323.513-.447.96-.48z" fill-rule="evenodd"/>
 <path d="m19.44,55.666c1.435,1.656 1.601,5.106-.48,6.24-1.807.362-2.511-1.643-4.08-.72-.38-.985-2.439-1.554-1.68-2.88 .599-.424.837,1.117 1.44,1.44 1.649.216 2.872,1.782 4.32,1.44 .503-.937.883-1.997 1.2-3.12-1.504-.01-1.218,1.14-1.92,1.44-.314-2.475.437-3.883 1.2-5.28-2.152-1.074-4.965-.78-5.04,1.92-1.025-2.394 1.989-4.636 5.04-3.6-.508-2.336-5.745-4.471-7.44-1.2-.329,2.517-1.042,6.99.24,9.6 .66,1.342 2.091,1.721 2.4,3.119-4.386-1.877-4.148-8.561-3.36-14.159 2.874-2.414 6.566-.294 8.64,1.44 .45,1.444.254,3.367-.48,4.32z" fill-rule="evenodd"/>
 <path d="m64.8,54.946c.23.525 1.397-.756 1.92,0-1.123,2.575-5.43.068-8.88.48-3.201.382-5.829,2.688-8.88,2.64 .016-1.587 1.896-1.316 2.88-1.68 1.167-.432 2.179-1.275 3.36-1.2 1.24-1.593 4.924-2.15 6.959-.96 1.135-.095 2.004.077 2.881.24 .04.279-.052.427-.24.48z" fill-rule="evenodd"/>
 <path d="m62.16,63.826c.969.891-1.772,1.79-3.119,1.92 .632-1.048 2.596-.763 3.119-1.92z" fill-rule="evenodd"/>
 <path d="m22.08,65.746c-1.338-.269-4.012.325-5.52-.479-.039-.279.053-.428.24-.48 1.064.499 4.675-1.372 5.28.959z" fill-rule="evenodd"/>
 <path d="m69.6,70.066c-.108.713-2.866.875-2.64-.24 1.047-.182 1.729-.334 2.64.24z" fill-rule="evenodd"/>
 <path d="m64.56,71.505c1.271-.037.145,1.079.48,2.16 .219.901 1.395.846 1.92,1.44 1.501-.846 3.305-2.58 5.76-1.681 .115,1.493-1.218.38-2.4.721-1.04.299-1.98,1.361-2.64,1.439-2.382.285-3.839-1.296-3.12-4.079z" fill-rule="evenodd"/>
 <path d="m50.64,99.345c1.988,5.052 3.799,10.282 4.32,16.801-.992-.831-.91-2.659-1.2-4.08-.843-4.124-2.27-8.503-3.12-12.721z" fill-rule="evenodd"/>
 <path d="m31.92,36.466c-1.935-.032-3.415,1.44-4.8,2.64 .209.709.359-.557.96-.24-2.017,2.063-5.094,3.065-7.2,5.04 1.836-.484 3.153-1.487 4.8-2.16 .683-1.237 2.025-1.814 3.36-2.4-.35,1.01-1.839.88-2.16,1.92 .85.283 2.022-1.172 2.64-1.92 1.758-.322 2.474-1.687 4.08-2.16-.555.885-1.702,1.179-2.16,2.16 1.781-.338-.623.557-.48,1.44 2.014-.946 2.991-2.929 4.56-4.32-.221,1.062-2.167,2.47-2.64,4.08 1.612-.304 2.322-1.695 2.16-3.12 1.569-.032 1.849-1.352 2.88-1.92 .613.398-.937.644-.72,1.44 .309.671.496-.756 1.2-.48-.371.509-.691,1.069-.96,1.68 1.279-.88 1.95-2.37 3.12-3.36-.124,1.718-2.761,2.998-3.36,5.04-.626.414-1.304.776-1.44,1.68 1.809.049 1.023-2.497 2.88-2.4-.051-1.157 1.328-2.138 1.92-3.36-.222,2.739-3.355,4.644-4.08,7.68-1.274-.263-1.966.995-2.88,2.16 1.228-.052 1.441-1.119 2.16-1.68-.115,1.408-2.438,2.68-3.36,4.08 .77.753 1.577-1.766 2.16-1.2-2.692,2.742-3.146,5.562-2.4,9.12-.984-.075-2.705-.358-2.4-.96-.904.836-1.266-.304-1.68.48-.88-.535.844-1.109 0-1.68-1.068-.188-.473,1.287-1.44,1.2-.179-.739.659-.461.48-1.2-.411-.01-.622.178-.72.48-.562-.5.512-1.394.72-1.92-.578-.098-.521.438-1.2.24 .095-.731 1.035-1.382-.24-.96-.003-.803.608-.992.96-1.44-.378-.673-.858,1.295-1.44.48-.485-.886-.101-1.693.24-2.4-.547-.067-.902.058-.96.48-.283-.949-1.293-.282-1.44-1.68 1.491-.27 2.03-1.491 3.6-1.68-2.275-1.104-3.5,2.765-5.52,1.2 .622-.338.498-1.422 1.68-1.2-1.062-.732-1.895.818-2.88.96 .127-.193.25-.39.24-.72-.759-.039-.802.638-1.68.48 .404-.632-.574-.507.24-1.2-.745.375-1.574.666-1.92,1.44 1.575,1.305 4.413,1.347 4.8,3.84-2.296-1.433-4.752-4.208-7.92-3.84-2.802.326-3.524,3.143-5.04,5.28-.269,3.165 1.082,6.095 1.44,9.12 .193,1.625.054,2.752 1.44,3.84 .431.338 1.671.714 2.64,1.2 .838.421 1.985.788 2.64,1.2 1.415.89 1.675,2.061 4.08,1.68 .904-.144 1.339-1.187 2.4-1.199 .173.732-.246.874-.24,1.439-1.376.494-2.546.991-3.84.72-1.092-.229-1.802-1.522-2.88-2.159-1.904-1.127-3.893-1.609-5.52-2.4 1.38,3.465 3.472,7.873 4.32,12.479 .652,3.544 1.24,7.53-.72,10.32 1.457.893 3.023,2.138 4.56,3.12 1.595,1.02 2.741,1.823 4.32,3.12 .88.723 2.028,1.221 2.88,1.92 .313.257.422.928.72,1.2 .522.476 1.357.701 1.92,1.199 2.191,1.944 4.843,3.869 7.68,5.761 2.713,1.809 5.99,4.358 9.12,2.64-.168-.739-.168-.461 0-1.2 1.679-2.132 2.688-5.387 4.32-7.92 .513-.796 1.005-1.903 1.44-2.399 .49-.56 1.258-.267 1.199-.721-.168-1.31-4.562-1.719-6-2.16-.355-.108-.575-.584-.96-.72-1.975-.697-4.274-1.03-6.48-1.92-3.057-1.233-5.553-2.959-8.16-4.56-3.592-3.449-7.188-6.893-7.68-13.44 1.474,1.472 1.181,4.962 3.12,6.24-.056.936.516,1.244.72,1.92 1.817,2.134 4.116,4.452 6.72,6.24 3.36,2.307 7.273,3.675 11.76,5.04 1.563.476 3.481.638 5.04,1.199 3.232,1.166 6.097,3.801 9.6,4.08 3.141.251 4.375-1.354 6-2.88-.787,5.329-9.721,3.778-12.959.96-.605.354-.992.929-1.201,1.681 1.751,1.209 3.478,2.443 4.32,4.56 2.715,2.073 6.344,4.467 9.6,6.48 1.373.848 3.109,1.134 3.841,2.64-4.337-1.823-8.05-4.271-11.761-6.72 .977,2.543 2.641,4.4 3.361,7.199-1.217-.44-1.197-1.904-1.681-2.88-1.358-2.737-3.315-5.69-5.04-8.399-1.189-.57-1.74-1.78-2.88-2.4-2.562,2.317-3.382,6.378-5.521,9.12 .158.719.514-.229.961,0-.143.979-.702,1.538-1.681,1.68-.03.431.294.507.24.96-2.141,2.02-4.4,3.92-6,6.48 1.37,2.016 3.623,3.916 5.76,5.52 1.138.854 2.624,1.902 3.601,1.92 1.328.024 3.346-1.194 3.6-2.159 .238-.909-.583-1.939-.721-2.641-.089-.456.069-.979 0-1.439-.541-3.622-4.206-5.479-4.56-7.681 4.003,2.824 5.763,6.702 5.521,12.96 .146.813 1.535.386 1.439,1.44-1.215.255-1.211-.71-1.92-.96-.662-.103-.225.895-.72.96-3.857.479-4.903-.694-7.44-2.64-2.17-1.665-3.657-2.475-4.8-4.801-1.658,1.383-2.281,3.799-3.84,5.28 1.742-5.618 5.493-9.227 9.36-12.72-3.822.842-7.677-2.349-10.32-3.84-1.247-.704-1.674-1.241-2.88-2.16-.642-.489-1.556-.73-2.16-1.2-1.498-1.165-2.837-2.663-4.32-3.84-1.204-.955-2.015-1.817-3.12-2.88-.77-.74-1.604-.93-2.64-1.681-.42-.305-.574-.93-.96-1.199-1.633-1.142-3.751-1.688-5.28-2.881-.202-.598-.314-1.285-.24-2.159 .317-.964 1.688-.873 1.68-2.16-.681.125-1.656,2.021-3.12,2.16 .05,2.616.446,4.75-.24,6.96 7.386,9.814 16.511,17.889 21.84,29.76-1.559-.819-2.208-2.699-3.12-4.08-.924-1.399-1.929-2.736-2.88-4.08-1.912-2.701-3.653-5.653-6-7.92-.975-2.098-2.653-3.581-4.08-5.28-1.674-1.992-3.688-3.682-5.28-5.76-.202-1.158-.551-2.169-1.2-2.88 .117-1.643.649-2.871.48-4.8-3.08,2.279-4.672,6.658-7.44,9.359-.911.89-2.301,2.321-3.84,2.16 .296-1.6 2.192-2.348 3.6-3.12 2.249-3.351 4.399-6.801 7.68-9.12 .251-2.388 1.893-3.387 3.6-4.319-.031-6.382-2.09-11.862-4.32-16.801-2.418-5.353-6.059-10.141-6.96-16.08-4.172-11.312-3.502-29.826 3.84-37.44-.664,2.618-3.299,5.34-3.84,8.88 1.141-1.579 1.63-3.81 2.64-5.52 .309,2.485-2.642,5.018-2.16,7.68 .729-1.911 1.755-3.524 2.4-5.52 .324,1.926-1.542,3.735-1.92,5.76 .544.547.872-.346.96-.96 .704.875-.849,1.542-.72,2.64 1.493-1.029 1.989-3.561 3.12-5.52 1.092-1.893 2.69-3.527 3.84-5.04 .021-1.581 1.403-3.013 2.4-4.32-.739.221-.959.96-1.44,1.44 .707-3.294 4.756-5.323 7.2-7.68-1.656.347-3.738,2.34-5.28,3.6 .508-1.334 2.861-2.897 4.56-3.84-.35-.47-1.285.313-1.44.24 4.689-4.702 13.969-4.885 22.8-4.32 1.307.083 2.578-.162 3.84,0 1.803.231 3.855,1.411 6,1.92 1.77.42 3.645.253 5.041.72 1.783.597 2.979,1.997 4.319,2.4 .288.315.094.377 0,.72 2.77.43 4.974,1.426 6.72,2.88 .178,1.203-.885-.319-.96.48 5.353.744 10.905,4.413 11.761,10.08 .681,4.519-.131,9.053-3.121,11.04v.96c-1.709.001-2.221,3.196-4.799,3.12-4.264,2.574-7.719-.936-12.961-.24 .494-.387.557-1.204.48-2.16-1.22-.02-.493,1.907-1.92,1.68 .464-.336.711-.888.96-1.44-.886-.086-1.003.597-1.2,1.2-.861-.087-.879-.644-1.68-.24 .305-.575.876-.884.72-1.92-1.57,4.229-8.05,1.047-11.28,2.64 .125-.355.355-.604.48-.96-.846-.289-2.456.686-1.44.72-2.26,1.726-5.734,1.097-7.92,3.12 .127-.193.25-.39.24-.72-1.381.379-2.421,1.099-3.36,1.92-.25-.345 1.26-.971 1.442-1.678zm4.32,3.119c.012.44-1.23.813-.48,1.2-.012-.439 1.23-.812.48-1.2zm-1.2-37.199c.557-.077.921.039 1.2.24 .423-1.074-1.27-.863-1.2-.24zm-12.72.96c.99-.13 1.625-.614 2.16-1.2-.727.392-1.668.572-2.16,1.2zm9.84-.241c.704.407 2.024-.276 2.4-.96-1.278-.158-1.795.446-2.4.96zm-1.68,1.921c.684.329 1.443-.431.72-.72 .074.553-.693.266-.72.72zm5.28-.24h.48c.373-.591-.815-.706-.72-.24 .147.013.284.036.24.24zm-18.72,4.08c1.803-1.078 3.412-2.348 4.8-3.84-1.863.059-3.43,2.488-4.8,3.84zm7.44-1.68c.88-.248 2.468-1.042 1.92-1.92-.41.869-1.663.897-1.92,1.92zm7.44-.72c.57-.15 1.117-.323 1.2-.96-.505.215-1.432.007-1.2.96zm4.8.24c.84.632 2.388.082 2.88-.96-.33.01-.527-.113-.72-.24 .078,1.197-1.713.526-2.16,1.2zm-10.08.24c.595.035 1.165.044 1.2-.48-.361-.383-1.01.006-1.2.48zm2.64.96c1.181-.1 1.836-.724 2.4-1.44-1.242.037-1.937.622-2.4,1.44zm-2.64-.72c-.204-.204-.685.174-.72.24-.227.421.886-.074.72-.24zm23.28,3.84c2.002-.638 2.706-2.574 5.04-2.88-.45.457-.026.603 0,1.2 .807-.474 1.954-.606 2.4-1.44-1.741-.881-3.887-.315-5.521.24-.001-.241.194-.286.239-.48-1.521-.161-1.78.939-2.879,1.2-.211-1.219-2.119.45-2.16.48-.555.402-.92.687-1.2.96-.221.215-.001.481 0,.48-.135.191-1.224,1.687-1.44,2.64 .885.045.468.783.721.96 .502-.586.343-.511.24-1.44 .77-.99 1.623-1.896 2.639-2.64-.512,1.007-1.527,1.513-1.92,2.64 1.119-.21-.33.622.48.72 1.316-.847 2.607-2.989 3.6-3.36-.279.04-.259.379-.239.72zm-31.68-2.16c-2.197,2.683-4.564,5.196-6.72,7.92-.168.739-.168.461 0,1.2-.888,1.434-2.668,3.248-2.4,5.04 .228-.812.819-1.261 1.2-1.92 .453.027.167.793.72.72-.666-1.433-.124-2.707 1.2-3.36 .037.597-.377.743-.48,1.2 1.092-.108.89-1.51 1.68-1.92 .148,1.241.476-.56.96-.48 .038.283-.042.681.24.72 1.577-3.784 6.12-5.88 7.68-8.88-1.002.518-1.485,1.555-2.64,1.92 .75-1.368 1.59-1.568 1.2-2.64-1.19.972-2.888,2.709-4.08,2.88 1.384-1.176 2.754-2.366 4.08-3.6-1.119.161-1.172,1.387-2.64,1.2zm4.8,3.12c.449-.442 1.889-1.137 1.2-1.92-1.104,1.139-2.804,2.953-3.84,3.36 .729-.241.306-.396 0-.72 1.672-1.447 3.477-2.763 4.8-4.56-2.194.605-3.55,2.561-5.04,4.32-1.437,1.696-3.302,3.275-4.56,5.04-.115.161.104.55 0,.72-.903,1.477-3.105,2.99-2.64,5.04 1.241-1.96 2.578-5.101 4.32-5.76-1.172,1.949-3.705,3.813-3.6,6.24 3.15-4.369 6.537-8.503 10.56-12-.613-.259-.84,1.033-1.2.24zm9.36-4.08c-2.612,1.032-4.874,2.297-6.72,3.84-1.223,1.022-3.855,3.004-4.32,4.32-.246.695-.071.056-.72.48-.32.209-1.073,1-1.44,1.44-.474.569-1.038,1.467-.96,1.92 .613-.667 1.253-1.307 1.92-1.92 .005.359-.892.981-.24,1.2 1.694-.868 2.567-3.83 4.08-4.08-.68,1.003-2.258,2.377-2.16,3.36 .72-.56.801-1.759 2.16-1.68 .354-.724 1.315-2.454 1.92-1.44 1.92-2.399 4.626-4.014 6.96-6-.56-.206-1.034.839-1.2.24 .293-.826 1.752-.487 1.92-1.44-1.067-.177-1.654,1.372-2.4.72 .704-.017.892-.549 1.2-.96zm-15.84.48c-1.473.283-.602,1.156 0,0zm12.24,7.92c1.104-.576 1.711-1.649 2.64-2.4 .098.302.309.49.72.48 1.267-.893 2.032-2.288 3.36-3.12-1.553.051-2.365,2.109-3.36,1.92 1.533-1.747 3.515-3.045 5.28-4.56-3.651.38-7.556,3.563-9.12,6 .45-.603.026.399 0,.72 1.285-.398 2.092-2.542 3.12-2.4-.796,1.047-2.857,2.098-2.64,3.36zm9.12-6c-.018-.418.053-.747.24-.96h-.72c-.067.547.058.902.48.96zm12.24,2.88c.751-1.569 2.385-2.255 3.36-3.6-1.567.594-3.361,2.235-3.36,3.6zm-35.28-2.16c.413.013.615-.185.72-.48-.412-.013-.615.184-.72.48zm23.04,3.12c-1.297.641-2.735,2.088-2.4,3.6 .976.096.739-1.021 1.44-1.2-.359,2.041-1.665,3.136-2.4,4.8 .209-.007.848-.333.96-.48 1.169-1.533 1.743-4.782 3.6-5.52 .156,1.036-.415,1.345-.72,1.92 1.595-.807 2.405-3.672 3.599-4.08-.565,1.194-1.282,2.237-1.68,3.6 1.016-.841 2.15-1.674 2.16-2.88 1.047-.874 2.264-1.577 2.4-3.36-1.192.168-1.343,1.377-2.4,1.68 .071-.489.48-.639.721-.96-2.523.117-2.708,2.572-4.32,3.6-.037-.597.377-.743.48-1.2-1.095.025-.979,1.261-1.92,1.44 .003-.477.655-.306.48-.96zm25.68-3.36c-1.537-.277-.526.733 0,0zm-50.64,2.4c.787-.333 1.137-1.103 1.68-1.68-1.011.109-1.151,1.089-1.68,1.68zm57.36.72c1.008.512 1.351,1.69 2.4,2.16-.77-2.031-2.504-3.096-4.32-4.08-.176,1.168-1.97-1.133-2.64-.24 .696.184 1.38.379 1.681.96-.559-.323-1.363-.397-1.921-.72-.026.292-.071.568-.479.48-.147-.333-.924-.036-.961-.48-.832.176-1.277.736-2.159.24-.422.138-1.41-.29-1.44.24h1.68c-.076.636 1.346-.225.961.72-1.291-.479-4.812-.984-6,0 .186.054.473.007.479.24-.282.038-.681-.042-.72.24 1.688-.167 2.734.305 3.84.72-2.062-.012-3.787-.882-5.279.24 .202.518 1.529-.09 1.68.48-2.854.006-6.465-.315-8.4,1.2 1.133-.517 1.243.634.721.48 1.311.387 2.089-.361 3.359.48-3.601-.133-6.352.281-8.641,1.92 .084-.06.578.115.48.24-.364.464-1.933.567-1.68.96 .915-.133 2.419-.93 3.359-.24-1.268.812-3.802.358-4.56,1.68 .78.277 1.476-.733 1.92,0-1.57.918-2.585-.537-3.84.48 .373.062.167.526 0,.72-1.254-.054-1.814.585-2.4,1.2 .731.094 1.222-.631 1.44.24-.547-.067-.902.058-.96.48 1.358.072 2.335-1.497 3.6-.72-1.962.998-3.663,2.257-4.8,4.08 .715.213 1.461-.748 1.68-.24-1.047,1.034-2.825,1.335-3.6,2.64 .668.013 1.426-1.112 1.92-.48-1.05,1.11-3.192,1.128-4.32,2.16 1.059.73 2.788-.984 3.6-.48-.794.405-1.524.875-2.16,1.44 1.48-.215 3.034-.992 4.32-.96 .532.013.668.979.96,0-.186-.054-.473-.007-.48-.24 1.182.351 3.175-.205 4.561-.96-.759-.331-1.449.594-1.681,0 .583-.307 2.65-.376 2.4-.72-.679-.042-1.646.206-1.681-.48 .967-.314 1.936-.625 3.36-.48-1.083-1.348-4.321.435-5.28,0 1.756-.796 3.138-.924 4.08-2.16-1.693.203-2.653-.29-3.84.48 .328-.307.328-1.133 0-1.44 4.56-2.561 9.83.089 10.32,5.04 .746-1.295-.738-3.529-.721-4.08 .724.957 1.599,1.762 1.44,3.6 1.261.13-.253-1.393.479-1.44 1.039-.079.111,1.809 1.201,1.68-.399-2.721-.954-5.287-4.08-5.28-.443-1.637-3.287-.874-4.32-1.92 5.098.61 9.529,3.072 9.359,8.16 .889-.272.761-1.413.721-1.92-.053-.656-.875-2.166-1.44-2.88-1.091-1.381-2.926-2.394-4.319-2.4 .07-.631-.932-.189-.721-.96 1.341-.055 2.334,1.498 3.36.96-.856-.824-2.464-.896-3.36-1.68 1.623-.019 2.928,1.547 4.08,1.2-1.523-.557-2.409-1.751-4.08-2.16 1.903-.828 3.466,1.729 4.801,1.44-1.383-1.578-3.795-2.125-5.761-3.12 3.483.196 5.232,2.128 7.681,3.36 .582.544 1.39,2.12 2.16,1.68-.84-1.563-3.194-2.884-3.601-4.08 1.391.134 2.208,2.106 3.12,1.92-.831-1.169-1.996-2.005-3.12-2.88 .89-.078 1.831,1.034 2.16.72-.183-.377-.762-.359-.72-.96 1.097.423 2.12.919 2.879,1.68-.271.843 1.002,1.972 1.681,2.64 .157-1.357-1.079-1.321-1.2-2.4 .902.698 2.074,1.125 2.641,2.16 .328-.9-1.336-1.638-1.44-2.88-1.665-1.614-4.502-2.058-6-3.84 3.351.649 5.882,2.118 7.681,4.32-.479-1.842-2.236-2.405-3.121-3.84 2.268,1.172 3.56,3.321 5.28,5.04-.663-1.977-1.875-3.405-3.12-4.8 1.707,1.042 3.187,2.993 4.32,4.8 .41.654.472,2.056 1.439,1.92-.898-2.134-1.139-4.13-2.879-5.76 .523.24.99.688 1.439,1.2 .9,1.024 1.373,2.869 2.4,2.88-.744-.784-.752-1.27-.24-1.68-1.34-2.421-4.738-4.061-6-5.76 2.844.917 4.75,2.77 6.72,4.56-.5-1.339.333-.681.72-.96-.279-.04-.26-.379-.24-.72 .344.057.405.395.721.48-.172-1.268-1.07-1.811-1.68-2.64 .753-.113.634.646 1.199.72 .002-1.05-1.84-1.509-1.439-2.16 1.854.865 2.686,2.754 4.08,4.08-.014-.413.185-.616.479-.72-.026-1.897-2.371-2.745-2.399-3.84 .768.996 2.283,2.511 3.119,2.64-.939-1.541-2.35-2.61-3.359-4.08 .591.15 1.979,2.061 1.441.48zm5.041,3.12c-.705-.265-.846-2.343-1.681-1.68 .705.264.845,2.342 1.681,1.68zm-49.441.24c.337-.543.971-.789 1.2-1.44-.888-.155-1.478,1.222-1.2,1.44zm8.88.48c-.307-.013-.333-.308-.72-.24-.373.59.816.705.72.24zm2.4,1.68c.736.001 1.649-1.053.96-1.68-.092.787-.702,1.058-.96,1.68zm-5.28.24c.873.153.943-.497.96-1.2-.69.03-1.139.3-.96,1.2zm40.8.959c.05-.689-.061-1.219-.48-1.44-.049.69.061,1.22.48,1.44zm-38.64-.479c-.809,1.092-1.587,2.512-2.16,3.84 1.618-.942 2.126-2.994 3.12-4.56-.782-.314-.707.379-.96.72zm-22.8.72h.48v-.48h-.48v.48zm10.08,10.56c1.281-.399 2.064-1.296 2.88-2.16-.561.019-1.352,1.022-1.92.24 3.204-.638 4.307-4.652 6.48-5.52-.743,1.498-2.201,2.278-2.88,3.84 1.464-.616 2.32-1.839 2.88-3.36 1.354-.41 2.177-2.619 2.16-3.6-.61.271-.555,1.206-1.2,1.44 .013-.413-.185-.615-.48-.72-.915.599-.804,2.981-2.16,2.4-.018.418.054.746.24.96-1.661.684-2.206,2.344-3.6,3.36-1.916,1.396-4.599,2.348-6.72,3.36 1.491-2.029 4.688-2.353 6.24-4.32-.344-.296-.455-.825-.48-1.44-1.131.069-2,.4-2.88.72 .301.099.49.31.48.72-1.8.601-4.674.125-5.76,1.44 .272-.527.803-.797.96-1.44-1.413-.052-1.6.057-2.4.24 .751-1.488 2.037-2.443 2.64-4.08-2.139.977-3.036,3.485-4.08,5.52-.76,1.481-1.784,2.263-1.44,3.84 .852-2.028 2.874-2.887 3.84-4.8 .652,1.295-1.255,1.885-1.68,2.88 1.973-.428 2.924-1.877 4.56-2.64-.748,1.334-2.807,2.63-2.88,3.84 .316-.632.788-.736 1.44-.48-.034-.453.522-1.301.96-.96-.536.904-1.264,1.616-1.68,2.64 .857.201 1.317-1.221 1.68-.72-.563.556-1.453.787-1.44,1.92-.542.402-2.191,1.489-1.2,1.92 1.552-1.505 3.883-3.455 6-3.6-1.175,1.145-2.825,1.815-3.84,3.12 .361.675 1.011-.609 1.2,0-.653.707-1.65,1.07-1.92,2.16 1.358-.321 1.427-1.933 3.36-1.68 .487-.934 2.131-1.786 2.88-1.68-.703,1.063-4.14,2.398-2.88,3.12-.421.329-1.143.988-.72,1.44 1.987-.335 3.155-2.763 4.8-2.64-.652.868-1.971,1.069-2.16,2.4 2.187-.392 4.747-2.439 6.72-3.84-.859-.047-1.606,1.258-2.4.48 1.561-.599 3.043-1.276 4.08-2.4-1.16-.12-1.332.749-2.4.72 .058-.342.396-.405.48-.72-.766-.143-.742.45-1.2,0-.069-.423 1.13-.743.48-.96-.976.788-2.68,2.115-4.08,1.68 .705-1.055 2.762-.758 3.12-2.16-1.521-.161-1.781.939-2.88,1.2 2.369-1.755 4.495-3.707 6.24-6 1.44-1.893 3.488-4.751 3.84-6.48-3.178,4.022-6.03,9.65-11.28,10.8zm-.72-9.12c.17-.177.598-1.175-.24-.96 .041.359-.086.885.24.96zm4.32,2.88c1.401-.681 3.071-2.365 3.12-3.6-1.143,1.096-2.813,1.666-3.12,3.6zm-21.6-2.641c-.622,1.916.722-1.601 0,0zm17.52.721c.591.032 1.156.037 1.44-.24v-.96c-.726.154-1.385.374-1.44,1.2zm-12.48.48h.48v-.48h-.48v.48zm11.28.24c-.904.044-1.093.431-1.44.48 .48.645 1.219.338 1.44-.48zm3.12,1.2c.489.071.471.649.96.72-.08-.742.896-1.413 0-1.92-.124.595-.585.854-.96,1.2zm45.84-.72c-.081-.194-.637-.29-.72,0-.159.556.938.519.72,0zm-47.04.96c.133-.295 1.575-.468.72-.96-.095.332-1.362.68-.72.96zm-4.08.24c-.118.842-.611,1.309-.96,1.92 1.544.104 2.412-.468 2.88-1.44-.283-.038-.682.042-.72-.24 .313-.486 1.271-.33 1.44-.96-1.286-.089-1.673,1.184-2.64.72zm13.68,3.6c2.096-.544 4.269-1.011 5.28-2.64-1.657.983-3.774,1.505-5.28,2.64zm-26.16-1.681c.209,2.433-2.299,4.493-.96,6.48 .129-1.831 1.931-5.021 1.68-7.2-.134.346-.374.586-.72.72zm49.68.241c-.379-.021-.188-.612-.721-.48-.21.495.793.909.721.48zm-9.359.719c.369-.724-1.242-.631-1.201-.24 .279.202.644.317 1.201.24zm-15.601,1.201v1.2h1.68c-.946-1.318.618-.611.24-1.44-.615.292-.972-.42-1.92.24zm26.16,1.68c-.009-.791.099-1.698-.72-1.68 .009.79-.098,1.698.72,1.68zm-29.52-.72c.447-.033.802-.158.96-.48-.547-.067-.902.058-.96.48zm33.84,1.919c-.154-.955.636-.965.48-1.92-.342-.058-.404-.395-.721-.48-.332.735-.146,1.74.241,2.4zm-32.64-.719c.427-.133.997-.124 1.2-.48-.595-.036-1.164-.045-1.2.48zm18,.96h.479v-.48h-.479v.48zm-8.4.48c.284-.117.544-.256.72-.48-.321-.037-1.323.377-.72.48zm-.96.96c.284-.117.544-.256.72-.48-.321-.037-1.323.377-.72.48zm-3.36,1.68c.095-.333 1.362-.68.72-.96-.133.294-1.575.467-.72.96zm-10.8,4.32c.187.054.474.006.48.24-.358.362-1.368.072-1.2.96 .708.119 3.637-1.577 2.64-2.4 .992-.153 1.649-1.01 2.64-.48 .558-1.522 2.267-1.893 3.36-2.88-2.362-.81-4.577,1.732-6.48,2.88 .56.206 1.034-.839 1.2-.24-1.083.436-1.898,1.141-2.64,1.92zm-18.24-2.88c.871-.231.202,1.078.96.96-.365-.865.939-2.009-.24-2.16 .061.7-.452.828-.72,1.2zm10.8,0c.646.165.464-.496.72-.72-.524-.044-.763.196-.72.72zm3.36,3.6c1.657.377 1.569-.991 2.16-1.68-1.065.214-1.836.723-2.16,1.68zm-1.44,1.2c.413.013.615-.185.72-.48-.413-.013-.615.184-.72.48zm8.4,1.44c.595.036 1.165.045 1.2-.48-.595-.036-1.164-.045-1.2.48zm1.44,3.6c.003-.396.666-.134.72-.48-.185-.501-1.443.176-.72.48zm-.72,2.64c.389-.892 1.562-.998 1.68-2.16-.783.344-2.314,1.196-1.68,2.16z" fill-rule="evenodd"/>
 <path d="m14.16,6.946c.472-.457-.806.976-1.44.96 .056-.744.851-.749 1.44-.96z" fill-rule="evenodd"/>
 <path d="m30,10.065c.77-.329-1.838.789 0,0z" fill-rule="evenodd"/>
 <path d="m67.201,13.906c.256-.545.728.689 1.439.48-.5.789-1.012-.406-1.439-.48z" fill-rule="evenodd"/>
 <path d="m6,22.786c-.592-.632.692-1.391 0,0z" fill-rule="evenodd"/>
 <path d="m21.12,28.065c-.283.677-1.19.73-1.92.96 .494-.466 1.252-.668 1.92-.96z" fill-rule="evenodd"/>
 <path d="m64.32,57.105c.707.722-.517,1.551-.959,1.92 .403,1.09 2.323.034 2.879.48-.238,1.614-2.52.716-3.84.72-.729.07-.33,1.269-.959,1.44 .07.836.648-.02.719.48-.723,1.943-5.42,1.445-5.76-.48 1.139-.099 1.262.819 2.4.72 .557-.342-.279-1.302-.48-1.68-2.743.787-4.214.102-6.479.96 1.496-3.57 10.188-1.194 12.479-4.56zm-5.76,3.121c1.17-.03 2.576.176 3.12-.48-1.218-.018-2.457-.058-3.12.48zm1.68,1.92c.282-.358.998-.283.961-.96-.986.6-.961-.431-2.16-.24 .105.694.505,1.094 1.199,1.2z" fill-rule="evenodd"/>
</svg>
