<?xml version="1.0" encoding="UTF-8"?>
<svg enable-background="new 0 0 125.484 179.217" viewBox="0 0 125.484 179.217" xmlns="http://www.w3.org/2000/svg">
 <path d="m91.124,8.361c.161.95-2.793,1.585-.347,1.727-.366.784-2.17.132-3.106.346 .057-.402-.075-.614-.344-.69 1.01-.717 2.124-1.329 3.797-1.383z" fill-rule="evenodd"/>
 <path d="m50.739,15.955c.937.314-.351,1.21-.346,1.728-1.044-.424.245-1.319.346-1.728z" fill-rule="evenodd"/>
 <path d="m30.029,17.335c-.044.992-.432,1.639-1.726,1.381-.41-1.49.997-2.069 1.726-1.381z" fill-rule="evenodd"/>
 <path d="m83.876,20.788c-.76,1.053-2.211-.4 0,0z" fill-rule="evenodd"/>
 <path d="m103.204,33.904c.558-.098.596.326 1.036.344 .136.67-1.573.506-1.036-.344z" fill-rule="evenodd"/>
 <path d="m46.597,38.391c-1.289-.368-.982.856-2.071.69 .67,1.05 1.714.699 1.036,2.415-1.086-.062-.441-1.858-1.726-1.725-.863.691 1.02,1.278 0,2.416-.789-.593-.308-2.454-2.071-2.072-1.094.72.142,3.319.69,4.488 1.043-.522-.286-1.515 0-2.416 1.577.033 1.195,2.026 2.07,2.761 .558-.874-.396-2.514 1.036-3.106 2.326,1.153.74,2.137 1.727,4.143-.558.098-.596-.327-1.036-.345 1.737,2.357 1.292,4.95 3.798,6.212 .061,1.323-.284.125-1.036.346 1.144,1.962 3.647,2.564 4.832,4.487-.977.285-.895-.488-1.726-.346 .662.832 1.62,1.371 2.415,2.071-7.415-1.713-14.281-8.674-13.806-18.295 1.197-.937 4.943-3.847 5.868-1.724z" fill-rule="evenodd"/>
 <path d="m100.443,37.701c1.404.119-.016.905.69,1.726-1.16.354-.537-1.074-.69-1.726z" fill-rule="evenodd"/>
 <path d="m120.806,53.923c.559.338.796.92.347,1.381-.47-.106-.287-.865-.347-1.381z" fill-rule="evenodd"/>
 <path d="m87.327,56.339c1.027.007 2.102-.032 2.069,1.035-.573-.458-2.196.126-2.069-1.035z" fill-rule="evenodd"/>
 <path d="m91.124,58.755c.971-.947 2.152.821 3.451.69-1.141,1.121-2.218-.756-3.451-.69z" fill-rule="evenodd"/>
 <path d="m94.575,63.243c-.597-.592.508-1.357-1.036-1.381 .35-.973 1.466.096 2.071,0 .098.903-.126,1.485-1.035,1.381z" fill-rule="evenodd"/>
 <path d="m84.909,115.708c-2.27-1.165-.751-4.277.347-5.868 1.253.242 1.443,1.549 2.761,1.727 5.505.757 9.034-3.934 12.081-7.249 4.784-5.205 12.623-12.676 8.629-21.744-.72-1.635-4.302-5.11-6.559-5.522-6.525-1.195-7.741,4.425-13.116,5.177 .35-1.246 1.761-1.943 2.762-2.761 2.218-1.816 4.212-3.878 8.974-3.453 6.686.6 12.006,6.724 9.667,15.533-.77,2.893-3.457,6.8-6.214,10.01-5.079,5.907-6.868,8.691-13.463,11.736h-2.415c-1.629.105-2.397,2.879-3.454,2.414z" fill-rule="evenodd"/>
 <path d="m52.12,83.261c-2.112.108-3.222-1.559-4.832-2.069-1.749-.557-3.295-.134-5.178-.345-.69-.078-1.439-.577-2.071-.69-6.157-1.11-11.93,3.577-18.294,1.035-1.28-.244-1.48.589-2.762.345 .396-1.43-.726-1.345-.689-2.417 5.169-2 13.491.137 19.328-1.726 1.375-.108.936,1.597 2.072,1.726 5.566-.271 11.336,1.088 12.426,4.141zm-14.498-5.177c-2.21-.398-.758,1.056 0,0z" fill-rule="evenodd"/>
 <path d="m47.978,88.785c-1.041,1.059-1.664,1.012-.689,2.762-2.567-.194-3.247,2.704-5.868,1.381-1.019.3.802.518.345,1.381-1.588.321-1.203-1.329-2.416-1.381-2.743,1.635-5.891-.254-8.975-.346 .146-.722-.235-.914-.345-1.38-.16-.738.494-.658 1.036-.691-.52-.631-1.49-.812-2.072-1.381 .115-1.345-.074-3.038 1.036-4.142 7.592-.345 10.345,4.151 17.948,3.797zm-17.258-3.452c-.016,1.365-.76,2.001-1.035,3.106 1.243.378 2.87,1.155 4.831,1.381 3.141.357 7.168.278 9.32-.691-4.94-.696-8.007-3.268-13.116-3.796z" fill-rule="evenodd"/>
 <path d="m93.539,87.749c1.4-.133.38,2.152.691,3.107 .719,2.489 5.509,3.439 5.867,6.213 .301,2.332-1.324,2.93-2.761,4.831-4.204.054-6.539,1.979-9.666,3.107-.058-3.74 2.198-5.167 3.798-7.249-1.009-4.723.552-7.042 2.071-10.009zm-.689,10.356c-.503,2.355-3.252,2.491-3.798,4.832 3.133-1.46 10.076-1.861 9.666-5.868-.166-1.623-1.682-2.392-3.452-3.106-.934-.792-1.111-2.342-2.416-2.761-1.541,2.34.452,4.771 0,6.903z" fill-rule="evenodd"/>
 <path d="m21.4,108.459c1.205,1.907-.758,3.606-2.417,3.797 .396-1.676 1.817-2.326 2.417-3.797z" fill-rule="evenodd"/>
 <path d="m9.665,118.469c.18-2.251-.214-3.931-.691-5.522 2.195-.536 3.976,4.996.691,5.522z" fill-rule="evenodd"/>
 <path d="m28.304,122.611c.875-.843-.727-.735-.345-2.072 2.156-.199 2.133,1.78 2.761,3.107-1.557,1.383-3.936-.068-6.214-.344-2.032-.247-4.229.166-5.867-.691-2.085.924-4.927,1.435-7.249.346-2.812,8.05 9.301,2.284 11.735,5.868-4.868,1.632-17.643.986-12.079-6.214-.078-1.418-1.523-1.467-1.381-3.106 2.978-.673 4.89,1.627 7.593-.347 3.384,1.33 7.133,3.763 11.046,3.453z" fill-rule="evenodd"/>
 <path d="m101.48 122.96c-1.775 2.633-4.999 3.688-7.594 5.177-7.848 4.504-16.688 8.402-25.196 12.771-5.798 2.977-11.817 5.185-17.604 7.94-5.708 2.717-10.729 6.205-16.224 8.974 8.675-8.522 21.273-11.591 32.447-17.258 11.286-5.727 22.553-12.134 33.479-17.604h0.692z" fill-rule="evenodd"/>
 <path d="m102.514,127.444h.69c-.992,1.203-2.479,1.706-3.798,2.415-16.368,8.812-33.003,20.562-46.252,33.137-2.028,1.926-4.412,3.856-6.212,5.867-1.842,2.058-2.633,4.798-5.178,6.215 6.991-10.957 17.133-19.233 27.268-26.926 10.17-7.717 20.921-15.324 33.136-20.708h.346z" fill-rule="evenodd"/>
 <path d="m104.24,128.478c.557-.096.593.326 1.035.347 .452,8.062 3.114,13.912 5.521,20.02-.34.395-1.997-1.384-2.415-2.072-1.055-1.736-1.472-4.365-2.416-6.903-.934-2.51-2.018-6.425-2.071-10.354-.097-.559.326-.596.346-1.038z" fill-rule="evenodd"/>
 <path d="m11.39,129.514c3.072,2.654-.271,8.725 2.763,12.427 4.333,5.289 14.555,6.372 23.816,5.176 3.954-.509 9.2-2.467 14.151-4.142 7.905-2.673 14.579-4.155 19.329-8.629-1.833,3.539-5.613,5.733-10.011,7.249-5.679,1.958-11.064,4.037-17.603,5.521-2.47.561-4.647,1.015-7.939,1.035-.32,1.574 4.407,2.247 2.417,5.523-1.123-.027-.737-1.563-1.037-2.415-2.764-1.798-5.875-1.585-10.698-2.071-9.211-.929-17.42-5.544-14.843-15.877 .051-1.381-1.393-2.496-.345-3.797z" fill-rule="evenodd"/>
 <path d="m94.23,153.675c-.776.749-1.697,2.709-2.762,2.071 .002-1.607 1.497-1.723 2.762-2.071z" fill-rule="evenodd"/>
 <path d="m91.124,156.437c-.771,1.061-2.211,2.937-3.453,2.416 .729-1.227 1.766-2.147 3.453-2.416z" fill-rule="evenodd"/>
 <path d="m86.29,159.889h1.037c-.53,1.714-2.123,2.438-3.798,3.106 .523-1.434 2.355-1.558 2.761-3.106z" fill-rule="evenodd"/>
 <path d="m81.459,165.412c-.151.425-.442.708-1.036.69-.16-.737.494-.657 1.036-.69z" fill-rule="evenodd"/>
 <path d="m66.963,9.397c-1.508.104-2.356.867-3.453,1.382-.538-1.127 1.822-2.311 2.072-3.798-.104-.704-.935-.676-1.035-1.381-1.682,1.081-3.649,1.875-4.487,3.797-2.019-.37-2.658,1.779-3.453,2.071-.591.217-1.496-1.797-1.38,0-.513-.151.136-.441 0-1.035-3.11.802-4.339,3.483-6.558,5.177-.134-3.009 2.669-3.083 2.762-5.867-2.261,1.191-4.322,2.582-5.524,4.831-1.409-.891.29-2.352.69-3.45-1.507.447-1.629,2.28-3.106,2.762-.29-1.558.808-1.724 1.035-2.762-.064-.28-.346-.344-.345-.69-2.482-.114-2.581,3.769-4.832,2.761-.12-1.386 1.621-.91 2.071-1.726 .249-1.055-.354-1.258-.346-2.071 1.698-1.407 3.919-2.294 4.832-4.487-4.958,2.531-8.438,6.746-10.699,11.045-1.233-.923.706-1.567.346-2.761-.449-1.129-2.593.834-2.418-2.07-1.857.902-2.286,3.234-4.142,4.142-.782-.369-1.254-1.047-1.381-2.071-3.296,2.157-5.286,5.697-5.176,10.355 .149.513.44-.137 1.035,0-.108.948-.47,2.567 1.726,2.415 .968-.599.324-.904.346-2.07-.376-1.083.638-.411 1.035-1.036 .837-1.313.166-3.545 2.415-3.45 .537,1.227-1.171.207-1.034,1.035 .004.969.941-.822.689.69 1.754.022 3.955-2.483 4.486-4.833-.024.612.876,2.002 1.037,0 .908,1.157-.892,2.547-.69,4.143 1.446-.396 1.288-2.393 2.415-3.107 .426,1.044-1.155,2.767-.689,4.142 2.414-1.507 2.409-2.7 3.797-4.142 .89.083-.474.595 0,1.381 1.044-.105 1.233-1.068 2.761-.689 .363,1.514-1.167,1.133-1.035,2.416 1.286.356 2.999-1.828 3.451-3.453 1.048.426-.375,1.189 0,2.072 1.234-.377 1.153-2.068 2.071-2.762 1.454-.613 1.854,1.605 3.106-.346-.06.932-.619,2.172-.689,4.142 1.046.128.716-1.123 1.035-1.724 1.399.678 2.446-1.592 3.45-2.418 .229,1.189-.817,2.374-.689,4.142 2.159-.603 1.71-3.81 4.142-4.142-.041.994.188,2.26-.345,2.762 .986-1.085 1.202-2.939 3.452-2.762 .205,1.102-.647,1.067 0,1.728 .392.807 1.154-.885 1.38-1.382 .73.314-.651,1.388-.345,2.416 1.645-.542 2.671-1.701 3.106-3.451 .375.085.234.686.691.689 1.101-.509.824-2.396 2.069-2.761-.065.28-.346.345-.345.691 1.059-.669 1.562-1.891 2.417-2.762 3.207-.414 3.772-4.881 7.593-5.523 .251-.042.565.481 1.036.345 4.335-1.258 9.639-3.904 14.151-1.035 .351-.225.356-.793 1.035-.69 8.313,3.653 15.074,8.856 20.02,15.877 1.43,1.104 2.088,2.976 3.798,3.798 2.635,4.185 5.567,8.02 6.212,13.807 .408,3.676 1.444,6.536 2.417,9.663-1.733-.797-.83-4.23-3.106-4.486 2.14,4.68 2.952,9.931 2.761,14.153-1.219-2.35-1.101-6.034-3.106-7.595-.847,2.923 2.979,4.151 2.069,8.284-.881-1.189-1.05-3.09-2.069-4.143-.753-.062-1.098.282-1.035,1.036-.612-.31-.441-1.401-1.727-1.036-.162,1.952 2.992,3.403 3.107,6.213-1.775-.578-2.035-2.305-3.798-2.07-.474,1.132 2.852,3.025 1.726,4.833 .684.696 1.375,1.385 2.072,2.069 1.498-1.221-1.269-2.349.343-4.142 .47.106.288.866.347,1.381 1.812-.563 1.212-1.565 2.417-2.416 1.225.22-.103,1.938.345,3.453h-1.036c1.181,1.255-.449,2.21.346,3.795-1.028,1.22-1.729,3.391-1.381,5.522-3.075,3.369-2.933,9.954-5.868,13.463-.677,4.014-3.577,6.565-5.521,9.318-1.538,2.174-2.14,5.113-4.489,6.902-2.022,4.402-4.7,8.462-6.902,12.773-.866,1.694-1.331,3.275-2.417,4.831-.353.507-.499,1.476-1.381,1.034 1.436-4.941 4.311-9.308 6.902-13.806 .681-1.177 1.024-2.622 1.728-3.796 2.636-4.413 5.826-7.237 6.56-13.808 .16-1.452.05-2.714-.692-3.796 .603-7.146-6.312-9.493-12.08-11.391-2.226,1.515-3.912.478-6.213.346 .04,1.766 1.142.47 2.416.689-4.959,2.29-9.622,4.875-11.736,10.01-5.103,1.005-7.843-.181-13.46-.346-.302-.504-.275-1.335-1.381-1.035 .636-2.68.307-3.747 0-6.557 .685-.576.438.03 1.381,0-.341-.467-.921-.69-1.381-1.037-1.241-6.123-5.616-9.112-8.975-13.114-.977.285-.896-.487-1.727-.346-.34-1.732-2.37-1.771-3.452-2.763 .997-.972 2.018.959 3.107,1.036 .984-.535.121-.949 1.381-1.381 .7-.105-.071.997-.345,1.035 .88-.216 2.033.808 3.45,1.037-1.804-.957-2.501-3.021-4.142-4.144-1.514.393-1.133-.002-2.416-.344 .056-.405.63-.293 1.035-.346-1.928-2.013-3.498-3.665-4.833-5.523 .63-.604 1.897,1.078 2.762,1.381 .031-.489.058-.977-.345-1.036 1.075-.259 2.389,2.207 4.143,2.417-.721-2.042-2.92-2.603-3.798-4.487 .692-.557 1.997,1.21 3.107,1.381-.854-1.907-3.201-2.322-4.832-3.453 1.958-.912 2.814,2.242 5.177,2.072-.857-.637-1.39-1.603-2.416-2.072 .814-.902 1.796.948 2.762,1.038-.23-1.961-4.288-3.075-6.56-4.142-.681-.585-.537-1.994-2.069-1.728-1.193.691-.104,1.278 0,2.416-1.651-1.62-4.063-2.777-2.762-5.522 1.1.296 1.311-.301 1.727-.691-.522-1.955-2.584-4.002-4.833-3.104-.063.753.282,1.097 1.035,1.035-1.089.84-2.135-1.303-3.797-1.035-.05,1.085.885,1.186 1.727,1.38-.777.465-1.941.21-2.762,0-.127.589.269.65.69.69-1.258,1.01-1.385-2.053-3.453-1.381 .109,1.159 1.155,1.376 2.072,1.726-3.196.791-7.754.053-7.938-2.415-1.237.21-.459,2.207.69,2.07-.957.934-1.893-1.082-2.762-1.381-.846.038-.072,1.143.346,1.036-1.287.586-2.399-1.966-4.142-2.071-.767-.96-.219-3.233-2.418-2.761 1.487,2.193 2.793,4.571 5.179,5.867-.73.707-1.826-1.148-3.106-1.035-.139,1.403 1.17,1.361 1.726,2.07-1.405,1.269-2.402-2.637-4.142-1.035-.497-.538-.87-1.202-1.726-1.381-.666.977 1.307,2.431 2.416,1.725-1.224,2.386-2.986-.526-4.488.347-.407,1.558 1.529.771 1.035,2.415-1.425-.069-1.076-1.913-2.761-1.725-.755.232.654,1.146 1.036,1.38-.814.903-1.797-.946-2.761-1.036 .544.913.383,1.073-.691.691-.103.906 1.34.271 1.035,1.381 1.057.249 1.016-.595 2.072-.346-.944,1.447-2.832,2.261-4.142,2.071-1.009-.146-1.312-1.303-2.762-2.417-.453-.347-1.463-.389-1.727-.689-1.974-2.244-2.432-6.064-2.761-8.283-1.74,4.566 1.181,9.96 5.177,11.044-2.196.695-4.334-1.645-5.868-2.761-3.24,2.154-2.231,9.545-2.416,15.188-.178,5.45-.113,10.734-2.761,14.152 1.064,1.022.617,2.423 1.035,3.45 1.642,4.036 5.523,5.819 7.594,9.32-1.346,7.396-2.078,15.41-6.559,19.674 .167,1.488-.725,2.594-.69,3.453 .259,6.294 7.798,3.887 13.807,3.795 .478.558 1.223.851 1.037,2.07-2.758-1.963-9.202,1.521-13.116-.689-3.023-1.708-4.258-7.58-.347-10.7 .725-4.683 2.437-8.38 3.797-12.425-1.751-.478-3.577.879-5.522.689-.147-.656-.742-.867-.689-1.726 2.905.786 4.498-.454 6.558-1.38 .187-5.088-5.993-6.293-7.249-11.047-.254-.965-.349-3.203-.344-4.482 .012-2.805.283-5.783.345-8.285 .195-7.807 1.342-16.564 4.143-21.746-2.98-5.17.233-11.862 2.417-16.222 .857-1.716 1.481-3.717 2.069-4.486 3.363-4.406 9.479-5.955 12.771-8.629 2.206.854 4.019-1.441 5.522-2.418 1.011.311 1.061.311 2.071,0 5.409-4.715 14.312-5.938 22.435-7.938 1.324.802-1.297.502-1.034,1.381 2.011-.175 3.919-.454 4.832-1.727 1.136-.416 2.597,1.642 2.762,0 .854,1.442 2.581.209 4.142,0 2.142-.286 4.325.308 6.558.346 3.619.06 7.096-.159 10.7.69 1.231.289 2.81.683 4.488,1.035-7.859.676-15.461,4.83-18.639,10.356-.537.537 1.122-2.191 1.381-3.107zm-9.32,37.278c.435-.404.276-1.435-.69-1.381-.64.608.088,1.069.69,1.381zm-3.797-40.73c1.323-.062.125.283.345,1.036 .991-.12 2.511-1.22 3.452-2.071 .678-.614 2.477-2.001 1.381-2.415-1.755,1.121-3.199,2.554-5.178,3.45zm-10.01-2.07c.407-.169.782-.368 1.035-.691-.46-.054-1.903.542-1.035.691zm42.801,2.07c-.548-.432-1.963.361-1.035-1.035-4.662.467-10.32,2.126-12.772,5.869 .882-.265 1.587-.51 2.07.345-.18.51-.51.87-.689,1.381 .929.095 1.658-1.384 1.034,0 1.223.187.85-1.224 2.072-1.036-.112.583-.462,1.552 0,2.071 .587-1.14 1.686-1.766 3.45-1.727 .149.657.745.866.691,1.727 1.394-.103 2.693-.298 3.106-1.381-.716-.205-2.268.427-2.417-.346 1.529-.018 2.385-2.954 4.834-1.726-1.091.062-2.061.243-2.073,1.381 1.354.015 1.071-.729 1.381-1.035 2.992,2.286 7.193-.026 11.391.69-.654-2.108-4.21-1.312-4.831-3.452-2.321.479-2.019-1.664-3.798-1.727 .514,1.13-2.398.171-2.762,1.381 .335-1.673-1.928.131-1.725-.689 .241-.681 1.927.084 2.073-.691zm-68.688,17.949c.941-.25.694.687 1.381.689 .473-1.416.603-1.382.345-3.106 1.668-2.357 3.921-4.132 5.178-6.903-1.204-1.18-1.723.351-2.762.691-.415.136-1.325-.163-1.727,0-1.836.739-3.074,2.66-4.831,3.451-.588.265-1.407.026-2.072.691-.414.414-.112,1.535-.689,2.416-.32.484-1.2.662-1.382,1.034-1.013,2.09-1.23,4.648-2.761,6.56 3.42-.61 3.396-6.495 5.523-7.249-.612,1.113-1.035,2.415-1.381,3.796 3.144-.997 2.843-5.44 6.212-6.212-1.107,1.384-.752,2.134-1.034,4.142zm64.891-8.284c2.027.934 4.351-.489 6.212.69-.058.518.123,1.273-.344,1.382-2.343-.526-5.032-.195-6.56,1.034 1.13.516 2.29-.28 3.798-.344-.188,1.337 2.001.297 2.07,1.38-2.983.586-5.824-.605-7.249,1.725-1.683-.856-1.806.653-3.45,0 .625,1.126-.454,1.811.689,2.417-.606.199-2.028-.417-2.07.345 1.421.312 3.443,1.838 4.831,1.036-.407-.168-.782-.367-1.035-.691 3.225.396 4.374-.294 7.25.691 1.575-1.988 5.208,1.437 6.902-.691-1.712-1.049-4.822-.7-6.558-1.726 1.937-.438 3.718.941 4.486-.344-.789-.593-2.434-.329-3.105-1.037 1.631-.137 2.88.111 4.142.347 .438-1.591-1.751-.552-2.072-1.381 2.772-.467 5.643.794 7.595,0-.82-.217-1.607-.464-1.727-1.381 2.094.078 3.157.602 5.522,1.034 .263-1.297-1.832-.237-1.381-1.724 1.042.014 2.959.928 3.798,0-2.657-1.627-6.466-3.857-10.01-3.453-.617.929 1.52.668.344,1.035-1.192-.93-2.604-.049-3.45-.345-.247-.938 1.628.247 1.381-.69-3.799-.482-6.869-.248-10.009.691zm-8.284,1.38c.545.032.271.881 1.036.692 .544-.954-.897-1.55-1.036-.692zm.689,1.383c1.531.5 2.658.336 3.106-1.037 1.974.248 2.542-.91 3.453-1.726-2.963.849-4.545.961-6.559,2.763zm-12.08.689c1.162.439 1.426-1.751.69-2.072 .166,1.087-.492,1.349-.69,2.072zm8.629-.689c-2.429,1.712-5.793,2.49-7.593,4.83 1.789.195 3.218,1.226 4.142-.345-.506-.299-1.094-.518-1.035-1.381 .651.078.762-.388 1.381-.344 .999.717 3.638.913 4.142-.69-.644-.331-1.155,1.033-1.381,0 .45-.816 2.191-.341 2.07-1.727-.8.111-1.325-.054-1.726-.343zm-22.09,3.104c1.161.439 1.427-1.75.689-2.069 .167,1.085-.491,1.349-.689,2.069zm59.713-.344c.146-.762-1.034-1.904-1.381-1.037 .703.104.677.935 1.381,1.037zm-92.503,2.07c.101-.408 1.388-1.303.344-1.726-.101.409-1.389,1.306-.344,1.726zm100.786,9.321c-2.55-2.117-4.628-5.471-7.593-7.249-.647-.389-3.832-1.937-4.487-1.036 1.709,1.743 4.59,2.312 5.522,4.833-2.799-.976-5.707-4.822-8.629-3.452-1.675-.795-1.702-1.403-2.761-2.417-1.284.961-2.559.448-4.143,0 .536,1.52 2.476,1.3 3.796,1.728 6.527,2.103 10.261,7.321 14.843,11.045-.164-1.632.43-.644 1.036-.345 .456-.865-1.364-1.081-.347-1.383 1.045.583.089,1.554.691,2.072 1.127-.992 1.062,2.145 2.762,1.726-.35-2.296-2.515-2.778-2.762-5.178-.668-.827-2.068-.921-2.072-2.415 2.735.488 2.258,4.186 4.834,4.832 .004-1.452-1.446-1.45-.69-2.761zm-7.593-7.594c-.306-1.545-2.779-2.732-3.798-2.416 1.244.828 1.96,2.182 3.798,2.416zm-101.133-1.381c.051-.407.615-.782 0-1.035-.049.407-.614.782 0,1.035zm52.464,1.381c-3.156-.696-5.237,2.552-7.248,4.142 .654.382 1.632.44 2.416.69 .209-1.615.803-2.312 2.417-1.726 .481-1.504 2.152-2.772 4.142-1.727-.227-1.263.747-1.324.69-2.416-.445-.476-1.5-.343-2.417-.345-.473.788.891,1.298 0,1.382zm-53.499,0c.863.059 1.08-.532 1.38-1.036h-1.035c.014.476-.163.758-.345,1.036zm72.829,4.487c-1.511-.674-3.308-1.063-4.142-2.417 1.358-.081 3.767,2.042 4.142.69-1.358-1.523-7.784-4.245-11.39-2.416-.476,1.09.854,2.083 0,2.416-1.862-1.463-4.65-.496-6.903-1.035 1.429,2.153 5.847,1.481 8.284,2.07 2.83.685 5.7,3.152 7.593,1.727-.285-.331-2.232-.706-1.38-1.035 1.017.182 3.524,1.2 3.796,0zm40.038,6.213c-1.58-4.862-5.403-9.322-9.663-10.355 3.896,2.774 6.721,6.625 9.663,10.355zm-99.406-4.487c1.085-.396.84.541 1.381.689 .95-1.761-.286-3.801 1.381-4.487 .053.406-.06.98.344,1.036-.095-.604.973-1.724 0-2.071-.674,1.09-1.816-.221-2.069-.69-.875,1.298-.155,3.605-1.037,5.523zm91.468,5.177c-1.327-1.485-3.378-4.101-6.559-6.214-.24-.158-.79.157-1.034,0-2.497-1.589-8.62-6.039-9.319-3.45-.066.249 1.472,1.533.344,1.381 1.397.328 2.859.594 3.798,1.381-1.01.671-2.243-.819-3.798-.691 .163,2.138 3.592,1.012 3.798,3.106 1.031.401 2.525-.407 2.762,1.38-.347-.001-.412.28-.691.347-4.302-2.371-10.482-4.703-15.531-5.178 1.319.75 3.095,1.046 3.797,2.416 2.067-.682 4.819.928 6.212,2.07-.517.059-1.273-.122-1.38.345 .516.405 1.411.431 1.726,1.035-1.273.22-2.638-1.247-3.452-.344 2.125.521 3.448,1.846 5.179,2.762-1.631-.165-.644.43-.346,1.035-2.237-.644-5.486-2.104-7.248-2.07 1.087,1.097 3.328,1.043 4.486,2.07-2.566.285.737,1.754 1.381,2.071-2.861-.362-4.767-1.678-7.248-2.416-.031.94.574.694 0,1.379 12.845,3.839 22.18,11.187 27.612,22.438-.831.141-.749-.631-1.726-.346 .049,1.562 1.416,1.807 1.381,3.452-1.244-.942-1.85-2.523-4.143-2.417 .722,1.928 3.404,3.724 3.107,5.522-1.488-.697-1.291-3.082-2.761-3.797-.039,2.951 2.681,6.035 4.141,8.629 1.152-1.772-1.372-2.424-1.034-4.486 .975-.285.893.486 1.725.345-.464-1.655 1.013-2.171 0-4.141 .652.076.76-.39 1.38-.347-1.761-8.593-8.488-12.22-12.771-18.293 1.398.327 1.902,2.208 3.452,1.381 .138-1.403-1.47-1.062-1.726-2.071 .878-.375 1.338,1.616 1.38,0-.556-1.009-1.779.55-2.07-.344 1.64-.897-.955-1.204-1.036-2.418 2.283.138 3.26,3.405 5.18,2.762-1.131-.835-3.441-2.304-3.108-3.452 1.691.958 3.617,3.511 5.178,3.452-.889-1.297-2.493-1.88-3.107-3.452 .889.607 1.622,1.369 2.418,2.071 .078-2.271-2.606-3.6-2.418-4.832 2.66,1.828 4.276,4.698 6.559,6.903 .233-2.88-1.934-3.358-2.417-5.522-.075.269-.287.4-.689.344 .419-.946-.396-2.027-1.034-2.76-1.647-1.891-4.416-3.594-5.523-5.523 1.888,1.33 3.063,3.376 5.173,4.487zm2.762,2.415c-.874-.734-1.182-2.038-2.415-2.415 .034,1.358 1.873,2.711 2.415,2.415zm-53.846-10.354c.104.679-.465.685-.69,1.036 .788.822 2.413.809 3.107,1.726-.502.188-1.784-.404-1.727.344 2.263.964 4.471,3.811 6.903,3.453-1.021-.989 1.342.719 1.381-.347-.979-.401-2.282-.479-2.762-1.381 1.564.047 2.378.845 3.797,1.035 .329-.641-1.035-1.152 0-1.38 1.963.759 3.956,2.465 6.213,1.036-3.518-5.303-12.572-3.03-17.258-6.903-.021.21-.053.407-.346.345v1.036c.644.331 1.156-1.034 1.382,0zm-15.187,5.523c-.116,1.842 1.931,1.521 3.107,2.071 .497-1.689 1.857-2.515 2.761-3.797 1.099.053 1.519.782 2.762.689 .554-1.357-1.491-.119-1.381-1.035 .005-.57.958-.192 1.035-.689-1.786.22-.514-.715-.69-1.726-3.33.697-3.891,4.161-7.594,4.487zm-42.799,2.071c1.11-.169 1.383-2.97.689-3.797-.523.974-.833,2.157-.689,3.797zm90.087-3.451c2.235,1.017-1.01-.46 0,0zm-47.633,1.38c.363-.873-1.164-1.53-1.381-.691 .542.15.295,1.086 1.381.691zm6.559,2.071c3.608,1.798 7.112,3.701 11.391,4.832 .463-.975-1.829-.864-.691-1.381 2.74.667 6.697,1.025 9.32.346-2.163-1.404-4.915-2.219-6.902-3.797 .406-.055.979.06 1.035-.345-2.812-.644-5.3-3.442-8.63-2.418 .631-.014 2.208.729 1.381,1.035-1.494.102-2.929-1.655-4.143-.688 .342.142-1.181,1.327-1.726,1.726 1.593.593 3.166,1.205 4.487,2.071-2.314.236-3.331-2.643-5.522-1.381zm-28.305,1.035c-.382-1.344-.953-2.496-1.725-3.451-.724,1.245.718,2.833 1.725,3.451zm18.984-2.07c-.355-.216.045-1.443-1.38-1.381 .268.453.857,2.32 1.38,1.381zm39.35,0c1.007.507 1.007-1.544 0-1.036v1.036zm-10.01,1.38c.256-.766-1.272-1.422-1.381-.689 .51.177.869.509 1.381.689zm-32.101.346v-1.035c-.406.053-.981-.061-1.035.345 .493.081.581.567 1.035.69zm14.842,2.416c-.478-1.364-1.812-1.871-3.798-1.726-.676-.292-1.724-1.715-2.069-.346 .537,1.073 2.257.963 2.761,2.071-.422.039-.816.104-.691.69 3.739,2.259 7.482,6.306 12.773,5.868-.194-1.188-1.006-1.758-1.728-2.417 .328-1.197 1.114.224 1.728-.69-3.195-.947-5.516-2.768-8.976-3.45zm31.066-1.037c-1.106-.159-1.218-1.313-2.416-1.38-.956.847 1.576,2.386 2.416,1.38zm6.557,11.046c.933.688 3.86,1.188 3.451,2.07-1.238-1.036-4.47-1.226-3.796-3.106-4.669-1.773-8.298-4.589-13.117-6.213-.183-.761-1.847-1.803-2.415-1.035 2.467,1.56 4.376,3.677 6.559,5.522-.616.206-1.435-1.011-1.728,0 1.837.955 4.228.387 5.522,2.415-2.119.896-4.612-2.463-6.558-1.724 1.332-.394 1.768,1.669 1.382,1.381 1.366,1.023 3.399.604 4.487,2.415-2.126.059-4.3-2.685-6.215-1.381 .589.142-.073.445 0,1.035 .814.846.642-.516 1.728-.346-.841,2.193 3.349,2.111 4.142,3.798-3.769-.144-5.174-2.649-8.63-3.106 .344,2.01 2.215.942 2.761,3.106 1.27.068 3.216.496 2.762,1.727-1.545-.643-2.682-1.691-4.831-1.727-.878-.847-3.363-2.992-4.487-1.381 3.951,2.723 8.22,5.126 13.116,6.903-.135.494-.414.581 0,1.035 3.84,1.452 7.305,3.28 11.391,4.487 .932,1.145 2.955,3.019 4.83,2.072-1.637-2.044-4.745-2.618-6.557-4.487 .638-.052.212-1.169.689-1.381-.651-.077-.762.389-1.381.346-.025-.603.078-1.075.346-1.382-.77-.511-2.991-1.359-2.415-2.071 1.913.9 3.507,1.803 5.522,1.381-.812-1.029-2.279-1.402-3.107-2.415 .882-.268 1.588,1.35 2.072.344-.199-.31-1.861-.833-1.037-1.035 1.216-.048 2.464,1.656 3.106,1.035-.933-1.023-2.507-1.405-3.45-2.416 2.297.578 3.847,1.904 5.867,2.762-.553-1.359 1.49-.12 1.381-1.035-1.228-1.08-4.476-1.96-3.798-3.796 .161,1.357 1.134.626 2.072,1.034 1.012.439 1.968,2.646 2.761,1.381-.191.002-.392-.279 0-.346 1.529.196 1.632,1.819 3.451,1.727-1.238-2.678-6.025-3.636-6.558-5.868 1.935.597 3.175,1.888 4.832,2.761-.618-2.688-4.893-2.879-4.832-5.176-.495-.542-1.799-.273-1.727-1.381 2.489.736 4.602,3.678 7.595,2.761-5.846-5.201-13.79-8.302-22.092-11.047 .142,1.225 1.511.684.692,2.072 .652.078.761-.39 1.38-.346-.108.467-.491.659-.346,1.381 1.734.913 3.875,1.419 5.178,2.762-1.774.495-2.595-1.758-3.798-.69 .41.168.782.368 1.037.69-1.208.483-2.211-.968-2.763,0 5.771,3.434 12.529,5.88 17.604,10.01-4.732-.905-7.602-5.509-12.078-5.522zm-8.285-6.558c-.159,1.08.301,1.542 1.381,1.381-.486-2.158-2.604-2.687-4.142-3.798 .124,1.602 1.345,2.106 2.761,2.417zm-69.721.344c-.729-1.227-1.766-2.146-3.452-2.416 .491,1.466 1.569,2.343 3.452,2.416zm39.347.346c-.491-.083-.581-.568-1.035-.69-.302.712.896,1.55 1.035.69zm21.746,1.381c.511.18.871.511 1.38.69 .424-1.359-1.209-1.858-1.38-.69zm-17.948,2.76c1.596.881 3.691,2.951 5.522,1.728-1.307-1.455-4.132-1.391-5.177-3.106 .078.651-.389.759-.345,1.378zm64.2.691c.018-.594-.266-.884-.689-1.034-.02.593.265.885.689,1.034zm-57.298,2.416c.554-.961-1.49-.953-1.38-.346 .466.111.66.492 1.38.346zm7.249,5.524c-.825-1.592-1.908-2.924-4.142-3.105 .612,1.804 2.983,1.846 4.142,3.105zm-7.593-1.381c.172-1.228-2.028-1.857-2.762-1.036 1.295-.027 1.044,1.487 2.762,1.036zm6.558,3.451c-1.101-1.778-3.762-3.825-5.521-3.796 1.004,2.102 3.273,2.937 5.521,3.796zm7.938,2.762c-2.415-1.267-3.545-3.815-6.557-4.487-.109,1.834 2.064,1.386 2.07,3.106 1.222-.186 1.778.292 2.071,1.035-.405.055-.98-.059-1.035.346 3.996,3.559 8.496,4.539 13.115,7.248-.106-1.598 1.01-.379 2.072-1.034-1.089-.754-2.744-.94-3.453-2.072 1.233.271 2.798.887 4.143,1.381 1.174.431 2.851,2.017 3.452.691 .482-.845-2.538-1.132-3.107-2.072 1.809-.082 2.612.84 4.142,1.035-.921-2.068-3.912-2.068-5.866-3.104-.039.419-.104.815-.69.688-1.925-.501-3.84-1.634-5.178-1.726 1.565-1.152 3.122,1.413 4.486.345-3.83-1.461-7.13-3.454-11.045-4.832 .959,2.608 4.222,2.911 6.214,4.487-2.334-.376-2.284-1.232-4.834-1.035zm-6.211,10.355c2.273,1.065 4.347,4.163 7.247,3.45-2.474-.865-4.95-3.558-7.247-3.45zm1.035-2.762c1.366-.107-.386-1.199 1.034-1.036-.37-1.616-2.43-2.495-3.796-2.071-1.145-2.213-5.903-3.641-4.486-6.212-1.678.649-1.525-.504-3.107-.69 .143,2.718 5.128,3.156 3.107,5.868 1.822,1.513 3.018,3.654 5.521,4.486 .311.61.833,1.008 1.035,1.726 2.283.371 4.791,3.787 6.56,2.417-2.482-.971-3.925-2.98-5.868-4.488zm7.594,4.143c-.97-.819-1.146-1.401-.346-2.416-2.082.865-3.377-.123-5.522-1.037 1.494,1.387 4.227,3.361 5.868,3.453zm33.133-13.117c-.276,2.09 1.584.23 0,0zm-30.717,8.284c-1.553-1.068-4.083-4.345-5.869-3.107 .859.638 1.949,1.044 2.416,2.071-.857.055-1.068-.542-1.726-.69 2.221,2.383 5.35,3.857 8.629,5.179 .461-.346 1.042-.569 1.381-1.035-1.41-.55-3.348-1.397-4.831-2.418zm37.623,1.38c.235-.954-.356-3.683-1.381-4.487 .713,1.243.193,3.718 1.381,4.487zm-8.629,6.213c-.712-2.463 1.099-.398 1.034-.345 .751-.625.016-1.158.689-2.07-1.104.301-1.079-.532-1.381-1.036 .879-.042 1.339-.502 1.381-1.381-1.204-2.016-2.171-4.271-4.142-5.522 .178,1.55 1.539,1.913 2.071,3.106-.656.147-.867.743-1.726.69 .104-.909-.478-1.132-1.381-1.035-.362,1.514 1.167,1.133 1.035,2.417-.594.134-.885-.513-1.035,0 .802,1.455 1.194,4.278 3.455,5.176zm0-10.01c-.118-.279-.918-.416-1.038,0-.226.8 1.349.748 1.038,0zm-10.011,4.488c2.616.836 3.521,3.383 5.522,4.831 .212-1.783.684.805 1.381.69 .015-2.092.26-2.919-1.036-4.141-.277-.262-.917.379-1.035.345-.45-.133-2.285-2.223-1.727-2.762-1.556.292-1.723-.809-2.762-1.035-.396.409-.39,1.222-.343,2.072zm17.948,2.071c-.312-.952-.106-2.424-.689-3.106-.254,1.005-1.736,3.291.689,3.106zm-26.233,2.071c-.298-1.197-1.286-1.704-2.415-2.071 .314,1.18 1.12,1.871 2.415,2.071zm24.164-.346c.061-.753-.284-1.098-1.037-1.034 .437,1.618-.252,2.709.346,4.487-1.012.094-1.282-1.385-1.727,0 1.002.378.224,2.537 2.071,2.069 .503-1.856.873-3.084.347-5.177 .509.4.868.4 1.38,0 .138-1.289-.277-2.025-1.38-2.071-.208.615 1.011,1.434 0,1.726zm-42.457,1.035c-1.261-.693-1.892-2.02-3.796-2.069 .666,1.068 3.007,2.271 3.796,2.069zm15.532,0c-.195-.972-2.188-1.93-2.762-1.38 .714.667 1.92.841 2.762,1.38zm-7.937,0c.509.18.869.512 1.381.69 .764-.497-.437-.842.345-1.034 .832.366 2.486,2.237 3.105.689-1.286-.208-1.692-1.298-3.105-1.381 .164,1.089-1.584.26-1.726,1.036zm7.592,1.037c-.259-.909-2.186-1.933-3.105-1.037 1.121.26 2.137.625 3.105,1.037zm-18.983,2.07c.614-.19 1.433-.176 1.726-.688-1.845-.006-3.062-2.452-4.486-1.728 1.057.668 1.731,1.719 2.76,2.416zm3.451-1.38c-.064-.971-.601-1.471-1.726-1.381-.22,1.255.715,1.357 1.726,1.381zm33.826,1.725c-.204-1.062-.089-2.441-1.381-2.415 .265,1.001.546,1.985 1.381,2.415zm-21.399-1.38c.551-.96-1.492-.954-1.381-.345 .652-.077.761.389 1.381.345zm-1.726,0c-.442-.019-.479-.441-1.036-.345-.538.849 1.171,1.015 1.036.345zm-5.177.346c-.211-.2-1.638-.81-1.726,0 .789.265 1.639,2.245 2.761,1.034-.434-.142-.707-.445-.691-1.034 .193.001.392-.28 0-.347-.02.212-.052.411-.344.347zm-1.726,2.416c.049-.972-.846-.997-1.728-1.036 .142.868 1.183,1.585 1.728,1.036zm33.136,5.176c.432-2.058.379-4.433-1.38-5.176 .203,1.98.894,3.477 1.38,5.176zm-34.517-3.45c-.456-.005-.316-.606-.691-.691-.396.707.543,1.645.691.691zm37.623,2.762c-.278-1.199.514-1.328.344-2.417-1.892.063-.312,3.599-3.107,2.762-.405,3.349-1.086,4.316-1.381,7.592 2.263-1.282 4.066-4.55 3.799-7.248 1.394.748 1.52-2.428 1.035-1.381-.073.387-.384.538-.69.692z" fill-rule="evenodd"/>
 <path d="m62.129,14.574c.657.101-.466,2.037-1.035,1.036 .039-.652 1.14-.239 1.035-1.036z" fill-rule="evenodd"/>
 <path d="m64.201,29.417c3.585.743-2.385-.369 0,0z" fill-rule="evenodd"/>
 <path d="m107.001,35.285c1.145.121 1.497,1.034 2.07,1.726-.038.126-2.099-.642-2.07-1.726z" fill-rule="evenodd"/>
 <path d="m121.844,55.995c.392.065.19.346 0,.345 1.314,2.644-.832,1.327 0-.345z" fill-rule="evenodd"/>
 <path d="m83.529,64.279c.34-1.059.921.396 1.38.344-.095.816-.92-.395-1.38-.344z" fill-rule="evenodd"/>
 <path d="m98.718,82.573c-.007,1.501 1.067,1.923.688,3.795-1.636-.196-1.625,1.061-3.796,1.037-.771-1.604-.278-2.5-1.035-3.798 5.161-4.876 12.253-1.081 12.08,5.522-.052,2.004-1.334,4.538-2.07,6.214-.847,1.926-1.885,3.869-3.451,4.832-.337.009-.27.422-.347.69-.335-.01-.267-.423-.344-.69 3.045-3.467 5.774-9.55 2.761-15.188-.831-1.552-2.298-3.703-4.486-2.414z" fill-rule="evenodd"/>
 <path d="m101.823,147.117c.981.674-1.229,1.046-1.036,2.072-2.626.594-3.011,3.43-6.212,3.45 2.163-2.092 5.095-3.419 7.248-5.522z" fill-rule="evenodd"/>
 <path d="m21.745,179.217c.151-9.282 5.26-13.608 10.01-18.294 2.663,1.511 1.834,5.854 2.761,8.975 .528,1.773 2.296,3.101 1.726,6.213-.979-.417-1.435-1.777-1.726-2.761-.937-3.181-1.084-7.394-1.725-11.046-2.325,1.474.438,5.657-.345,8.629-.461,1.75-.656,5.252-2.762,5.178 .259-.65 1.03-.239.345-1.033-1.596.457-2.822-.367-3.451,1.38-2.948-.417-3.198,1.863-4.833,2.759zm4.486-3.796c-.32-.369-1.271-.108-1.034-1.036 1.731-2.64 3.878-4.866 4.487-8.629-2.534,2.385-5.953,6.881-4.832,10.701 .093-.711 1.528-.082 1.379-1.036zm1.381-2.417c.021-.21.053-.408.347-.345-.04-.422-.104-.817-.691-.69 .054.406-.06.979.344,1.035zm2.073.693v-1.037h-1.036c-.063.753.284,1.097 1.036,1.037z" fill-rule="evenodd"/>
</svg>
